<svg width="1440" height="111" viewBox="0 0 1440 111" fill="none" xmlns="http://www.w3.org/2000/svg">
<path d="M0 55.5C0 24.8482 24.8482 0 55.5 0H1384.5C1415.15 0 1440 24.8482 1440 55.5C1440 86.1518 1415.15 111 1384.5 111H55.5C24.8482 111 0 86.1518 0 55.5Z" fill="#222C1F"/>
<path fill-rule="evenodd" clip-rule="evenodd" d="M1149.5 54C1149.5 52.6193 1150.62 51.5 1152 51.5L1408 51.5C1409.38 51.5 1410.5 52.6193 1410.5 54C1410.5 55.3807 1409.38 56.5 1408 56.5L1152 56.5C1150.62 56.5 1149.5 55.3807 1149.5 54Z" fill="#D9D9D9"/>
<path d="M1107.68 50.916C1104.82 52.4395 1102.62 53.8896 1101.09 55.2666C1099.56 56.6338 1098.76 58.4062 1098.69 60.584C1098.69 62.0977 1099.51 62.918 1101.15 63.0449C1102.88 62.8789 1104.53 62.0586 1106.07 60.584C1105.55 59.6855 1105.23 58.7822 1105.1 57.874C1105.21 56.0381 1106.07 53.7188 1107.68 50.916ZM1112.73 48.1621C1114.21 48.3379 1114.95 49.4561 1114.95 51.5166C1114.95 53.6553 1114.16 56.0381 1112.6 58.665C1112.92 58.665 1113.16 58.7041 1113.32 58.7822C1114.08 58.7236 1114.86 58.4307 1115.66 57.9033C1116.46 57.376 1117.46 56.5459 1118.67 55.4131L1119.38 58.0059C1117.98 59.8906 1116.53 61.165 1115.03 61.8291C1113.54 62.4834 1111.75 62.8447 1109.67 62.9131C1106.73 65.7939 1103.81 67.2344 1100.91 67.2344C1098.75 67.2344 1097.09 66.3604 1095.93 64.6123C1094.77 62.8643 1094.19 60.8379 1094.19 58.5332C1094.19 56.0137 1095.02 53.665 1096.68 51.4873C1098.34 49.2998 1100.45 47.5713 1103.02 46.3018C1105.59 45.0225 1108.12 44.3828 1110.62 44.3828C1112.87 44.3828 1113.99 45.0029 1113.99 46.2432C1113.99 46.9951 1113.57 47.6348 1112.73 48.1621Z" fill="#D9D9D9"/>
<path d="M1074.52 51.6338C1080.35 47.7178 1084.34 45.7598 1086.51 45.7598C1087.33 45.7598 1087.97 46.0674 1088.42 46.6826C1088.87 47.2881 1089.09 48.001 1089.09 48.8213C1089.09 51.8779 1085.87 56.2188 1079.44 61.8438C1080.39 61.8438 1081.07 61.8828 1081.47 61.9609C1082.57 61.9121 1083.54 61.7314 1084.4 61.4189C1085.26 61.1064 1086.28 60.5107 1087.46 59.6318C1088.65 58.7529 1090.19 57.4492 1092.09 55.7207L1092.58 58.665C1090.58 60.5596 1088.62 62.1514 1086.67 63.4404C1084.74 64.7295 1082.92 65.6865 1081.21 66.3115C1079.5 66.9268 1077.91 67.2344 1076.43 67.2344C1074.63 67.2344 1073.13 66.7559 1071.94 65.7988C1071.31 66.0527 1070.35 66.2529 1069.05 66.3994C1068.04 66.2529 1067.32 66.0918 1066.9 65.916C1066.41 66.6777 1065.65 68.0938 1064.63 70.1641C1063.6 72.2344 1062.79 73.8408 1062.18 74.9834C1061.59 76.1357 1060.93 77.1611 1060.2 78.0596C1059.48 78.9678 1058.79 79.4219 1058.14 79.4219C1057.25 79.1582 1056.81 78.1768 1056.81 76.4775C1056.81 74.29 1057.49 72.1123 1058.86 69.9443C1059.26 69.3096 1059.96 68.2207 1060.97 66.6777C1061.97 65.125 1062.84 63.7871 1063.56 62.6641C1064.29 61.541 1065.21 60.0762 1066.31 58.2695C1067.43 56.4629 1068.68 54.373 1070.08 52V51.7656L1060.58 60.877L1060.35 58.123L1072.05 45.335C1075.67 41.4189 1077.55 39.3828 1077.69 39.2266C1078.56 38.2207 1079.7 37.7178 1081.11 37.7178C1081.65 37.7178 1082.22 37.835 1082.81 38.0693C1083.39 38.3037 1083.69 38.6455 1083.69 39.0947C1083.69 39.583 1083.43 40.1348 1082.91 40.75C1082.4 41.3652 1081.43 42.4297 1079.99 43.9434C1078.57 45.457 1077.41 46.8047 1076.52 47.9863C1075.63 49.1582 1074.96 50.374 1074.52 51.6338ZM1070.91 60.335C1071.16 60.2568 1071.58 60.2178 1072.17 60.2178C1073.19 60.2178 1074.45 60.4375 1075.95 60.877C1077.89 58.6113 1079.15 57.1318 1079.72 56.4385C1080.29 55.7451 1080.76 55.0713 1081.11 54.417C1081.47 53.7529 1081.65 53.1084 1081.65 52.4834C1081.65 52.1611 1081.47 52 1081.11 52C1080.48 52 1079.5 52.4297 1078.15 53.2891C1076.81 54.1387 1075.46 55.2129 1074.11 56.5117C1072.75 57.8008 1071.68 59.0752 1070.91 60.335Z" fill="#D9D9D9"/>
<path d="M1043.46 50.916C1040.6 52.4395 1038.4 53.8896 1036.87 55.2666C1035.35 56.6338 1034.54 58.4062 1034.47 60.584C1034.47 62.0977 1035.29 62.918 1036.93 63.0449C1038.67 62.8789 1040.31 62.0586 1041.85 60.584C1041.33 59.6855 1041.01 58.7822 1040.88 57.874C1040.99 56.0381 1041.85 53.7188 1043.46 50.916ZM1048.51 48.1621C1049.99 48.3379 1050.73 49.4561 1050.73 51.5166C1050.73 53.6553 1049.95 56.0381 1048.38 58.665C1048.71 58.665 1048.94 58.7041 1049.1 58.7822C1049.86 58.7236 1050.64 58.4307 1051.44 57.9033C1052.25 57.376 1053.25 56.5459 1054.45 55.4131L1055.17 58.0059C1053.76 59.8906 1052.31 61.165 1050.81 61.8291C1049.32 62.4834 1047.53 62.8447 1045.45 62.9131C1042.51 65.7939 1039.59 67.2344 1036.69 67.2344C1034.54 67.2344 1032.88 66.3604 1031.71 64.6123C1030.55 62.8643 1029.97 60.8379 1029.97 58.5332C1029.97 56.0137 1030.8 53.665 1032.46 51.4873C1034.12 49.2998 1036.23 47.5713 1038.8 46.3018C1041.37 45.0225 1043.91 44.3828 1046.41 44.3828C1048.65 44.3828 1049.77 45.0029 1049.77 46.2432C1049.77 46.9951 1049.35 47.6348 1048.51 48.1621Z" fill="#D9D9D9"/>
<path d="M1004.57 38.2598L1022.03 29.9834C1024.91 28.5771 1026.75 27.874 1027.55 27.874C1028.07 27.874 1028.33 28.1768 1028.33 28.7822C1028.33 29.7197 1028 30.6719 1027.33 31.6387C1026.67 32.5957 1025.84 33.3867 1024.86 34.0117C1023.87 34.6367 1022.93 34.9736 1022.03 35.0225C1021.9 34.9932 1021.72 34.959 1021.49 34.9199C1021.25 34.8809 1021.03 34.832 1020.83 34.7734C1015.56 37.5566 1010.86 39.9492 1006.75 41.9512C1002.64 43.9531 1000.14 45.2129 999.252 45.7305C998.373 46.2383 997.826 46.8096 997.611 47.4443C997.611 47.6494 997.553 47.9082 997.436 48.2207C997.494 48.5723 997.738 48.9189 998.168 49.2607C998.598 49.5928 999.394 50.0859 1000.56 50.7402L1016.99 60.2178C1017.88 60.7158 1018.78 61.5166 1019.7 62.6201C1020.62 63.7236 1021.08 64.9834 1021.08 66.3994C1020.95 68.2842 1020.45 69.2266 1019.57 69.2266C1019.14 69.2266 1018.28 68.8848 1016.99 68.2012L992.807 54.8271L988.017 60.584C988.017 61.2578 987.753 62.0146 987.226 62.8545C986.698 63.6846 986.015 64.4805 985.175 65.2422C984.345 66.0039 983.529 66.5898 982.729 67C981.879 67.4004 981.103 67.6006 980.399 67.6006C979.599 67.6006 979.135 67.2002 979.008 66.3994C979.164 65.4619 979.584 64.5244 980.268 63.5869L989.335 52C988.759 51.2188 988.397 50.3203 988.251 49.3047C988.29 48.2305 988.769 47.2832 989.687 46.4629C990.614 45.6328 992.216 44.627 994.491 43.4453C996.776 42.2637 998.056 41.5947 998.329 41.4385L1004.22 32.4443C1000.86 33.1768 997.787 34.0654 995.004 35.1104C992.221 36.1455 989.721 37.2148 987.504 38.3184C985.297 39.4121 983.373 40.3594 981.732 41.1602C980.092 41.9609 978.744 42.4541 977.689 42.6396C976.938 42.6396 976.415 42.4834 976.122 42.1709C975.839 41.8486 975.663 41.3652 975.595 40.7207C975.634 39.998 975.78 39.2021 976.034 38.333C976.298 37.4639 976.615 36.5264 976.986 35.5205C977.367 34.5049 977.562 33.9385 977.572 33.8213C977.807 33.1865 978.329 32.6152 979.14 32.1074C979.96 31.5898 980.536 31.1797 980.868 30.877C983.349 28.9629 984.989 28.0059 985.79 28.0059C986.034 28.0059 986.156 28.1035 986.156 28.2988C986.156 28.6992 985.844 29.2559 985.219 29.9688C984.604 30.6816 983.817 31.3066 982.86 31.8438C984.862 31.0625 986.83 30.291 988.764 29.5293C990.707 28.7578 992.514 28.0938 994.184 27.5371C995.854 26.9707 997.626 26.4971 999.501 26.1162C1001.39 25.7354 1003.26 25.5449 1005.11 25.5449C1005.79 25.5449 1006.44 25.8428 1007.06 26.4385C1007.68 27.0244 1008.19 27.7324 1008.57 28.5625C1008.95 29.3828 1009.14 30.1152 1009.14 30.7598C1009.14 31.4727 1009.02 31.9512 1008.77 32.1953L1004.57 38.2598Z" fill="#D9D9D9"/>
<path d="M937.274 60.5254C937.177 60.8086 937.05 61.1406 936.894 61.5215C936.737 61.9023 936.483 62.2783 936.132 62.6494L935.824 62.9717C938.969 62.8838 941.552 62.5615 943.573 62.0049C945.595 61.4482 947.04 60.7061 947.909 59.7783C948.954 58.665 949.208 57.415 948.671 56.0283C948.056 53.8213 946.054 52.6689 942.665 52.5713C941.747 52.6299 940.58 52.752 939.164 52.9375L938.813 54.2705C939.779 54.4072 940.478 54.5928 940.907 54.8271C941.337 55.0615 941.474 55.2568 941.317 55.4131C941.122 55.6377 940.712 55.75 940.087 55.75C939.599 55.75 939.018 55.6768 938.344 55.5303L937.274 60.5254ZM935.473 55.0615C933.988 54.6123 933.065 54.0752 932.704 53.4502C932.353 52.8154 932.489 52.1514 933.114 51.458C933.954 50.6377 935.214 49.9199 936.894 49.3047C937.382 47.9668 937.782 46.8584 938.095 45.9795C938.417 45.0908 938.715 44.373 938.988 43.8262C939.272 43.2695 939.657 42.7227 940.146 42.1855C940.458 41.8535 940.814 41.5703 941.215 41.3359C941.625 41.1016 941.986 40.9844 942.299 40.9844C943.022 40.9844 943.29 41.4043 943.105 42.2441C943.056 42.4297 942.968 42.8203 942.841 43.416C942.714 44.0117 942.597 44.4658 942.489 44.7783C942.392 45.0811 942.24 45.3447 942.035 45.5693C941.674 45.9502 941.278 46.1406 940.849 46.1406L940.028 48.6602C940.38 48.6309 940.902 48.582 941.596 48.5137C942.289 48.4453 942.89 48.3965 943.397 48.3672C945.165 48.3867 946.835 48.5918 948.407 48.9824C949.989 49.373 951.244 50.0078 952.172 50.8867C953.1 51.7559 953.461 52.9375 953.256 54.4316C953.061 55.916 952.094 57.6982 950.355 59.7783C949.955 60.2568 949.657 60.6035 949.462 60.8184C947.06 63.3672 944.315 65.1592 941.23 66.1943C938.524 67.1123 935.736 67.625 932.865 67.7324L934.096 62.6494L935.473 55.0615Z" fill="#D9D9D9"/>
<path d="M914.408 59.5L914.291 59.2656C912.416 61.2285 910.966 62.6934 909.94 63.6602C908.925 64.627 907.948 65.3887 907.011 65.9453C906.083 66.4922 905.189 66.7656 904.33 66.7656C902.953 66.5801 901.898 65.96 901.166 64.9053C900.434 63.8506 900.067 62.5078 900.067 60.877C901.591 56.0625 903.129 53.5234 904.682 53.2598C906.234 52.9961 906.156 55.1152 904.447 59.6172C904.535 59.7832 904.579 59.9834 904.579 60.2178C904.579 60.4326 904.716 60.5938 904.989 60.7012C906.386 60.4082 907.758 59.8125 909.105 58.9141C910.463 58.0059 913.095 55.7402 917.001 52.1172C920.937 48.1816 923.935 45.6035 925.995 44.3828C926.151 44.3047 926.352 44.2656 926.596 44.2656C927.016 44.2656 927.348 44.583 927.592 45.2178C927.846 45.8428 927.973 46.585 927.973 47.4443C927.973 48.2061 927.895 48.7432 927.738 49.0557C927.152 49.9248 926.068 51.126 924.486 52.6592C922.904 54.1826 921.698 55.5059 920.868 56.6289C920.048 57.7422 919.574 59.0215 919.447 60.4668C919.652 60.9453 919.818 61.2432 919.945 61.3604C920.072 61.4775 920.37 61.5996 920.839 61.7266C922.694 61.5703 925.814 59.6465 930.199 55.9551L930.551 58.5332C928.314 60.8379 926.391 62.6885 924.779 64.085C923.168 65.4814 921.737 66.5312 920.487 67.2344C919.237 67.9375 918.114 68.3184 917.118 68.377C915.966 68.377 915.019 68.0498 914.276 67.3955C913.544 66.7412 913.148 65.75 913.09 64.4219C913.227 62.791 913.666 61.1504 914.408 59.5Z" fill="#D9D9D9"/>
<path d="M882.299 59.5L882.182 59.2656C880.307 61.2285 878.856 62.6934 877.831 63.6602C876.815 64.627 875.839 65.3887 874.901 65.9453C873.974 66.4922 873.08 66.7656 872.221 66.7656C870.844 66.5801 869.789 65.96 869.057 64.9053C868.324 63.8506 867.958 62.5078 867.958 60.877C867.958 58.6504 868.52 56.3506 869.643 53.9775C870.766 51.6045 872.294 49.6416 874.228 48.0889C876.161 46.5361 878.256 45.7598 880.512 45.7598C881.869 45.7598 882.548 46.1211 882.548 46.8438C882.548 47.4883 882.064 48.3477 881.098 49.4219C878.91 51.8633 876.952 53.665 875.224 54.8271C873.485 56.1064 872.523 57.7031 872.338 59.6172C872.426 59.7832 872.47 59.9834 872.47 60.2178C872.47 60.4326 872.606 60.5938 872.88 60.7012C874.276 60.4082 875.648 59.8125 876.996 58.9141C878.354 58.0059 879.647 56.9854 880.878 55.8525C882.108 54.7197 883.446 53.4746 884.892 52.1172C888.827 48.1816 891.825 45.6035 893.886 44.3828C894.042 44.3047 894.242 44.2656 894.486 44.2656C894.906 44.2656 895.238 44.583 895.482 45.2178C895.736 45.8428 895.863 46.585 895.863 47.4443C895.863 48.2061 895.785 48.7432 895.629 49.0557C895.043 49.9248 893.959 51.126 892.377 52.6592C890.795 54.1826 889.589 55.5059 888.759 56.6289C887.938 57.7422 887.465 59.0215 887.338 60.4668C887.543 60.9453 887.709 61.2432 887.836 61.3604C887.963 61.4775 888.261 61.5996 888.729 61.7266C890.585 61.5703 893.705 59.6465 898.09 55.9551L898.441 58.5332C896.205 60.8379 894.281 62.6885 892.67 64.085C891.059 65.4814 889.628 66.5312 888.378 67.2344C887.128 67.9375 886.005 68.3184 885.009 68.377C883.856 68.377 882.909 68.0498 882.167 67.3955C881.435 66.7412 881.039 65.75 880.98 64.4219C881.117 62.791 881.557 61.1504 882.299 59.5Z" fill="#D9D9D9"/>
<path d="M849.926 59.5732C848.705 60.833 847.602 61.9121 846.615 62.8105C845.004 64.2949 843.573 65.4228 842.323 66.1943C841.073 66.956 839.95 67.3906 838.954 67.498C837.802 67.5566 836.854 67.2783 836.112 66.6631C835.38 66.0478 834.984 65.0762 834.926 63.748C835.062 62.1172 835.502 60.457 836.244 58.7676L836.127 58.5332C834.252 60.5937 832.802 62.1367 831.776 63.1621C830.761 64.1777 829.784 64.9883 828.847 65.5937C827.919 66.1894 827.025 66.5068 826.166 66.5459C824.789 66.4287 823.734 65.8623 823.002 64.8467C822.27 63.831 821.903 62.5078 821.903 60.8769C823.427 55.9844 824.965 53.3672 826.518 53.0254C828.07 52.6836 827.992 54.8076 826.283 59.3974C826.371 59.5537 826.415 59.749 826.415 59.9834C826.415 60.1982 826.552 60.3545 826.825 60.4521C828.222 60.081 829.594 59.4121 830.941 58.4453C832.299 57.4687 834.931 55.0713 838.837 51.2529C842.772 47.1123 845.771 44.3779 847.831 43.0498C847.987 42.9619 848.188 42.9131 848.432 42.9033C848.852 42.8838 849.184 43.1816 849.428 43.7969C849.682 44.4121 849.809 45.1494 849.809 46.0088C849.809 46.7705 849.73 47.3125 849.574 47.6348C848.988 48.5332 847.904 49.7881 846.322 51.3994C844.74 53.0107 843.534 54.3974 842.704 55.5596C841.884 56.7119 841.41 58.0156 841.283 59.4707C841.488 59.9297 841.654 60.2178 841.781 60.3349C842.826 59.9443 843.861 59.3828 844.887 58.6504C846.234 57.6738 848.861 55.2764 852.768 51.458C856.703 47.3174 859.701 44.583 861.762 43.2549C861.918 43.167 862.118 43.1181 862.362 43.1084C862.782 43.0889 863.114 43.3867 863.358 44.0019C863.612 44.6172 863.739 45.3545 863.739 46.2139C863.739 46.9756 863.661 47.5176 863.505 47.8398C862.919 48.7383 861.835 49.9931 860.253 51.6045C858.671 53.2158 857.465 54.6025 856.635 55.7646C855.814 56.917 855.341 58.2207 855.214 59.6758C855.419 60.1445 855.585 60.4375 855.712 60.5547C855.839 60.6621 856.137 60.7646 856.605 60.8623C858.461 60.6084 861.581 58.5234 865.966 54.6074L866.317 57.1709C864.081 59.5928 862.157 61.5459 860.546 63.0303C858.935 64.5049 857.504 65.6279 856.254 66.3994C855.004 67.1611 853.881 67.5957 852.885 67.7031C851.732 67.7617 850.785 67.4834 850.043 66.8682C849.311 66.2529 848.915 65.2812 848.856 63.9531C848.974 62.5176 849.33 61.0576 849.926 59.5732Z" fill="#D9D9D9"/>
<path d="M809.32 50.5059V50.374C805.883 51.5752 803.173 52.5859 801.19 53.4062C799.208 54.2168 797.387 55.3154 795.727 56.7021C794.066 58.0889 793.236 59.6807 793.236 61.4775C793.236 62.1416 793.598 62.542 794.32 62.6787C796.41 62.6006 801.41 58.543 809.32 50.5059ZM812.924 48.8213C813.998 49.3584 814.535 50.0957 814.535 51.0332C814.535 52.0098 814.037 53.0742 813.041 54.2266C810.697 56.9512 809.496 58.9873 809.438 60.335C809.496 61.1357 809.994 61.5996 810.932 61.7266C811.996 61.7266 813.227 61.3311 814.623 60.54C816.02 59.7393 817.753 58.4941 819.823 56.8047L820.292 59.2656C819.12 60.457 817.636 61.7803 815.839 63.2354C814.042 64.6807 812.255 65.9209 810.478 66.9561C808.7 67.9814 807.255 68.4941 806.142 68.4941C804.687 68.1719 803.905 67.1758 803.798 65.5059C803.925 63.6602 804.706 61.3359 806.142 58.5332L806.024 58.416C805.888 58.5234 804.711 59.4707 802.494 61.2578C800.277 63.0449 798.583 64.3584 797.411 65.1982C796.239 66.0381 795.248 66.5996 794.438 66.8828C793.793 66.8828 793.026 66.5215 792.138 65.7988C791.249 65.0762 790.487 64.1533 789.853 63.0303C789.228 61.9072 788.915 60.8086 788.915 59.7344C788.915 59.0215 788.954 58.543 789.032 58.2988C789.472 56.6191 790.497 54.9736 792.108 53.3623C793.729 51.7412 795.644 50.2959 797.851 49.0264C800.067 47.7568 802.294 46.7266 804.53 45.9355C806.776 45.1348 808.754 44.6562 810.463 44.5H811.063C811.991 44.5 812.86 44.7734 813.671 45.3203C814.491 45.8672 814.901 46.5752 814.901 47.4443C814.901 47.9229 814.242 48.3818 812.924 48.8213Z" fill="#D9D9D9"/>
<path d="M763.515 38.2598L780.976 29.9834C783.856 28.5771 785.697 27.874 786.498 27.874C787.016 27.874 787.274 28.1768 787.274 28.7822C787.274 29.7197 786.942 30.6719 786.278 31.6387C785.614 32.5957 784.789 33.3867 783.803 34.0117C782.816 34.6367 781.874 34.9736 780.976 35.0225C780.849 34.9932 780.668 34.959 780.434 34.9199C780.199 34.8809 779.979 34.832 779.774 34.7734C774.501 37.5566 769.809 39.9492 765.697 41.9512C761.586 43.9531 759.086 45.2129 758.197 45.7305C757.318 46.2383 756.771 46.8096 756.557 47.4443C756.557 47.6494 756.498 47.9082 756.381 48.2207C756.439 48.5723 756.684 48.9189 757.113 49.2607C757.543 49.5928 758.339 50.0859 759.501 50.7402L775.937 60.2178C776.825 60.7158 777.729 61.5166 778.646 62.6201C779.564 63.7236 780.023 64.9834 780.023 66.3994C779.896 68.2842 779.394 69.2266 778.515 69.2266C778.085 69.2266 777.226 68.8848 775.937 68.2012L751.752 54.8271L746.962 60.584C746.962 61.2578 746.698 62.0146 746.171 62.8545C745.644 63.6846 744.96 64.4805 744.12 65.2422C743.29 66.0039 742.475 66.5898 741.674 67C740.824 67.4004 740.048 67.6006 739.345 67.6006C738.544 67.6006 738.08 67.2002 737.953 66.3994C738.109 65.4619 738.529 64.5244 739.213 63.5869L748.28 52C747.704 51.2188 747.343 50.3203 747.196 49.3047C747.235 48.2305 747.714 47.2832 748.632 46.4629C749.56 45.6328 751.161 44.627 753.437 43.4453C755.722 42.2637 757.001 41.5947 757.274 41.4385L763.163 32.4443C759.804 33.1768 756.732 34.0654 753.949 35.1104C751.166 36.1455 748.666 37.2148 746.449 38.3184C744.242 39.4121 742.318 40.3594 740.678 41.1602C739.037 41.9609 737.689 42.4541 736.635 42.6396C735.883 42.6396 735.36 42.4834 735.067 42.1709C734.784 41.8486 734.608 41.3652 734.54 40.7207C734.579 39.998 734.726 39.2021 734.979 38.333C735.243 37.4639 735.561 36.5264 735.932 35.5205C736.312 34.5049 736.508 33.9385 736.518 33.8213C736.752 33.1865 737.274 32.6152 738.085 32.1074C738.905 31.5898 739.481 31.1797 739.813 30.877C742.294 28.9629 743.935 28.0059 744.735 28.0059C744.979 28.0059 745.102 28.1035 745.102 28.2988C745.102 28.6992 744.789 29.2559 744.164 29.9688C743.549 30.6816 742.763 31.3066 741.806 31.8438C743.808 31.0625 745.775 30.291 747.709 29.5293C749.652 28.7578 751.459 28.0938 753.129 27.5371C754.799 26.9707 756.571 26.4971 758.446 26.1162C760.331 25.7354 762.201 25.5449 764.057 25.5449C764.74 25.5449 765.39 25.8428 766.005 26.4385C766.63 27.0244 767.133 27.7324 767.514 28.5625C767.895 29.3828 768.085 30.1152 768.085 30.7598C768.085 31.4727 767.963 31.9512 767.719 32.1953L763.515 38.2598Z" fill="#D9D9D9"/>
<path d="M681.688 48.0303C681.571 48.2353 681.488 48.3769 681.439 48.4551L675.536 58.4453C675.38 58.7187 675.053 59.3144 674.555 60.2324C674.057 61.1406 673.612 62.1123 673.222 63.1474C672.841 64.1826 672.65 65.0957 672.65 65.8867C672.65 66.1797 672.689 66.458 672.768 66.7217C672.768 67.2685 672.626 67.542 672.343 67.542C671.62 67.542 670.551 66.9902 669.135 65.8867C668.832 65.6523 668.642 65.1836 668.563 64.4805C668.603 63.4844 668.9 62.2246 669.457 60.7012C670.023 59.1777 670.663 57.8349 671.376 56.6728C671.835 55.8818 672.318 55.0957 672.826 54.3144C673.344 53.5332 673.773 52.8984 674.115 52.4101C674.467 51.9219 675.102 51.0478 676.02 49.7881C676.547 49.0557 676.952 48.4941 677.235 48.1035C676.747 48.123 676.288 48.1523 675.858 48.1914L673.28 49.1728C673.104 49.1728 672.982 49.1435 672.914 49.0849C672.855 49.0361 672.807 48.9238 672.768 48.748C672.387 48.8555 672.045 48.9922 671.742 49.1582C670.922 49.3926 670.414 49.3779 670.219 49.1142C669.721 48.4599 669.813 47.2539 670.497 45.4961C670.644 45.1348 671.21 44.7734 672.196 44.4121C673.72 44.0215 675.814 43.7627 678.48 43.6357C678.998 43.6064 679.506 43.5869 680.004 43.5771C680.287 43.4795 680.526 43.4307 680.722 43.4307C680.888 43.4307 681.044 43.4697 681.19 43.5478C682.821 43.5283 684.359 43.5771 685.805 43.6943C687.299 43.7822 688.808 43.8945 690.331 44.0312C690.878 44.0801 691.4 44.1338 691.898 44.1924C692.045 44.1045 692.182 44.0264 692.309 43.958C692.914 43.6748 693.397 43.5332 693.759 43.5332C694.228 43.5332 694.618 43.8457 694.931 44.4707V44.5C695.946 44.6172 697.406 44.7832 699.311 44.998C700.385 45.1348 701.283 45.2471 702.006 45.3349C702.064 45.2959 702.123 45.2568 702.182 45.2178C702.387 45.1103 702.577 45.0029 702.753 44.8955L698.344 42.2881C698.217 42.1221 698.173 41.9951 698.212 41.9072C698.251 41.8193 698.393 41.7266 698.637 41.6289C699.955 41.3555 701.161 41.4482 702.255 41.9072C703.339 42.376 704.545 42.8935 705.873 43.4599C705.961 43.4404 706.049 43.4307 706.137 43.4307C706.488 43.4307 706.791 43.6064 707.045 43.958C708.5 44.5928 709.613 45.1006 710.385 45.4814C711.234 45.9209 711.786 46.3066 712.04 46.6387C712.362 47.0586 712.157 47.5371 711.425 48.0742C710.692 48.6113 709.936 48.9873 709.154 49.2021C708.783 49.3096 708.412 49.3828 708.041 49.4219C707.68 49.4609 707.328 49.4756 706.986 49.4658C706.762 49.4658 706.518 49.4609 706.254 49.4512L700.937 58.4453C700.78 58.7187 700.453 59.3144 699.955 60.2324C699.467 61.1406 699.027 62.1123 698.637 63.1474C698.246 64.1826 698.051 65.0957 698.051 65.8867C698.051 66.1797 698.09 66.458 698.168 66.7217C698.168 67.2685 698.031 67.542 697.758 67.542C697.035 67.542 695.961 66.9902 694.535 65.8867C694.232 65.6523 694.042 65.1836 693.964 64.4805C694.003 63.4844 694.306 62.2246 694.872 60.7012C695.438 59.1777 696.073 57.8349 696.776 56.6728C697.245 55.8818 697.733 55.0957 698.241 54.3144C698.759 53.5332 699.188 52.8984 699.53 52.4101C699.882 51.9219 700.512 51.0478 701.42 49.7881C701.576 49.5732 701.723 49.373 701.859 49.1875L699.105 49.0264L698.695 49.1728C698.51 49.1728 698.383 49.1435 698.314 49.0849C698.295 49.0654 698.271 49.0264 698.241 48.9678L694.374 48.7334L688.573 58.5332C688.417 58.8164 688.09 59.417 687.592 60.3349C687.094 61.2432 686.649 62.2148 686.259 63.25C685.878 64.2851 685.688 65.1933 685.688 65.9746C685.688 66.2676 685.722 66.5508 685.79 66.8242C685.79 67.3711 685.653 67.6445 685.38 67.6445C684.657 67.6445 683.588 67.0879 682.172 65.9746C681.859 65.75 681.669 65.2861 681.601 64.583C681.64 63.5771 681.938 62.3125 682.494 60.7891C683.061 59.2656 683.7 57.9228 684.413 56.7607C684.872 55.9795 685.355 55.1982 685.863 54.417C686.381 53.6357 686.811 53.001 687.152 52.5127C687.504 52.0244 688.139 51.1455 689.057 49.876C689.467 49.2998 689.809 48.8262 690.082 48.4551L688.676 48.3672L686.317 49.2754C686.132 49.2754 686.005 49.2461 685.937 49.1875C685.878 49.1289 685.829 49.0068 685.79 48.8213C685.819 48.6064 685.868 48.4014 685.937 48.206C685.38 48.1767 684.296 48.1279 682.685 48.0596C682.353 48.0498 682.021 48.04 681.688 48.0303Z" fill="#D9D9D9"/>
<path d="M655.775 51.8828C655.609 52.0195 654.745 52.6104 653.183 53.6553C651.62 54.7002 650.438 55.6475 649.638 56.4971C648.837 57.3467 648.383 58.3086 648.275 59.3828C648.549 61.1797 650.087 62.2393 652.89 62.5615C656.454 62.4248 660.893 60.0859 666.205 55.5449L666.923 58.0059C660.673 64.4805 655.316 67.7178 650.854 67.7178C649.232 67.7178 647.904 67.2588 646.869 66.3408C645.834 65.4229 645.087 64.2607 644.628 62.8545C644.179 61.4385 643.954 59.959 643.954 58.416C643.954 56.9121 644.247 55.5498 644.833 54.3291C645.429 53.0986 646.298 51.9561 647.44 50.9014C648.593 49.8369 650.087 48.7627 651.923 47.6787C656.103 45.1592 659.306 43.8994 661.532 43.8994C662.362 43.8994 663.036 44.1289 663.554 44.5879C664.081 45.0469 664.345 45.6768 664.345 46.4775C664.345 47.8447 663.524 49.5244 661.884 51.5166C660.292 53.4209 658.896 54.4414 657.694 54.5781C656.718 54.4805 656.078 53.582 655.775 51.8828Z" fill="#D9D9D9"/>
<path d="M626.186 59.5L626.068 59.2656C624.193 61.2285 622.743 62.6934 621.718 63.6602C620.702 64.627 619.726 65.3887 618.788 65.9453C617.86 66.4922 616.967 66.7656 616.107 66.7656C614.73 66.5801 613.676 65.96 612.943 64.9053C612.211 63.8506 611.845 62.5078 611.845 60.877C611.845 58.6504 612.406 56.3506 613.529 53.9775C614.652 51.6045 616.181 49.6416 618.114 48.0889C620.048 46.5361 622.143 45.7598 624.398 45.7598C625.756 45.7598 626.435 46.1211 626.435 46.8438C626.435 47.4883 625.951 48.3477 624.984 49.4219C622.797 51.8633 620.839 53.665 619.11 54.8271C617.372 56.1064 616.41 57.7031 616.225 59.6172C616.312 59.7832 616.356 59.9834 616.356 60.2178C616.356 60.4326 616.493 60.5938 616.767 60.7012C618.163 60.4082 619.535 59.8125 620.883 58.9141C622.24 58.0059 623.534 56.9854 624.765 55.8525C625.995 54.7197 627.333 53.4746 628.778 52.1172C632.714 48.1816 635.712 45.6035 637.772 44.3828C637.929 44.3047 638.129 44.2656 638.373 44.2656C638.793 44.2656 639.125 44.583 639.369 45.2178C639.623 45.8428 639.75 46.585 639.75 47.4443C639.75 48.2061 639.672 48.7432 639.516 49.0557C638.93 49.9248 637.846 51.126 636.264 52.6592C634.682 54.1826 633.476 55.5059 632.646 56.6289C631.825 57.7422 631.352 59.0215 631.225 60.4668C631.43 60.9453 631.596 61.2432 631.723 61.3604C631.85 61.4775 632.147 61.5996 632.616 61.7266C634.472 61.5703 637.592 59.6465 641.977 55.9551L642.328 58.5332C640.092 60.8379 638.168 62.6885 636.557 64.085C634.945 65.4814 633.515 66.5312 632.265 67.2344C631.015 67.9375 629.892 68.3184 628.896 68.377C627.743 68.377 626.796 68.0498 626.054 67.3955C625.321 66.7412 624.926 65.75 624.867 64.4219C625.004 62.791 625.443 61.1504 626.186 59.5Z" fill="#D9D9D9"/>
<path d="M579.384 48.0303C579.267 48.2353 579.184 48.3769 579.135 48.4551L573.231 58.4453C573.075 58.7187 572.748 59.3144 572.25 60.2324C571.752 61.1406 571.308 62.1123 570.917 63.1474C570.536 64.1826 570.346 65.0957 570.346 65.8867C570.346 66.1797 570.385 66.458 570.463 66.7217C570.463 67.2685 570.321 67.542 570.038 67.542C569.315 67.542 568.246 66.9902 566.83 65.8867C566.527 65.6523 566.337 65.1836 566.259 64.4805C566.298 63.4844 566.596 62.2246 567.152 60.7012C567.719 59.1777 568.358 57.8349 569.071 56.6728C569.53 55.8818 570.014 55.0957 570.521 54.3144C571.039 53.5332 571.469 52.8984 571.811 52.4101C572.162 51.9219 572.797 51.0478 573.715 49.7881C574.242 49.0557 574.647 48.4941 574.931 48.1035C574.442 48.123 573.983 48.1523 573.554 48.1914L570.976 49.1728C570.8 49.1728 570.678 49.1435 570.609 49.0849C570.551 49.0361 570.502 48.9238 570.463 48.748C570.082 48.8555 569.74 48.9922 569.438 49.1582C568.617 49.3926 568.109 49.3779 567.914 49.1142C567.416 48.4599 567.509 47.2539 568.192 45.4961C568.339 45.1348 568.905 44.7734 569.892 44.4121C571.415 44.0215 573.51 43.7627 576.176 43.6357C576.693 43.6064 577.201 43.5869 577.699 43.5771C577.982 43.4795 578.222 43.4307 578.417 43.4307C578.583 43.4307 578.739 43.4697 578.886 43.5478C580.517 43.5283 582.055 43.5771 583.5 43.6943C584.994 43.7822 586.503 43.8945 588.026 44.0312C588.573 44.0801 589.096 44.1338 589.594 44.1924C589.74 44.1045 589.877 44.0264 590.004 43.958C590.609 43.6748 591.093 43.5332 591.454 43.5332C591.923 43.5332 592.313 43.8457 592.626 44.4707V44.5C593.642 44.6172 595.102 44.7832 597.006 44.998C598.08 45.1348 598.979 45.2471 599.701 45.3349C599.76 45.2959 599.818 45.2568 599.877 45.2178C600.082 45.1103 600.272 45.0029 600.448 44.8955L596.039 42.2881C595.912 42.1221 595.868 41.9951 595.907 41.9072C595.946 41.8193 596.088 41.7266 596.332 41.6289C597.65 41.3555 598.856 41.4482 599.95 41.9072C601.034 42.376 602.24 42.8935 603.568 43.4599C603.656 43.4404 603.744 43.4307 603.832 43.4307C604.184 43.4307 604.486 43.6064 604.74 43.958C606.195 44.5928 607.309 45.1006 608.08 45.4814C608.93 45.9209 609.481 46.3066 609.735 46.6387C610.058 47.0586 609.853 47.5371 609.12 48.0742C608.388 48.6113 607.631 48.9873 606.85 49.2021C606.479 49.3096 606.107 49.3828 605.736 49.4219C605.375 49.4609 605.023 49.4756 604.682 49.4658C604.457 49.4658 604.213 49.4609 603.949 49.4512L598.632 58.4453C598.476 58.7187 598.148 59.3144 597.65 60.2324C597.162 61.1406 596.723 62.1123 596.332 63.1474C595.941 64.1826 595.746 65.0957 595.746 65.8867C595.746 66.1797 595.785 66.458 595.863 66.7217C595.863 67.2685 595.727 67.542 595.453 67.542C594.73 67.542 593.656 66.9902 592.23 65.8867C591.928 65.6523 591.737 65.1836 591.659 64.4805C591.698 63.4844 592.001 62.2246 592.567 60.7012C593.134 59.1777 593.769 57.8349 594.472 56.6728C594.94 55.8818 595.429 55.0957 595.937 54.3144C596.454 53.5332 596.884 52.8984 597.226 52.4101C597.577 51.9219 598.207 51.0478 599.115 49.7881C599.271 49.5732 599.418 49.373 599.555 49.1875L596.801 49.0264L596.391 49.1728C596.205 49.1728 596.078 49.1435 596.01 49.0849C595.99 49.0654 595.966 49.0264 595.937 48.9678L592.069 48.7334L586.269 58.5332C586.112 58.8164 585.785 59.417 585.287 60.3349C584.789 61.2432 584.345 62.2148 583.954 63.25C583.573 64.2851 583.383 65.1933 583.383 65.9746C583.383 66.2676 583.417 66.5508 583.485 66.8242C583.485 67.3711 583.349 67.6445 583.075 67.6445C582.353 67.6445 581.283 67.0879 579.867 65.9746C579.555 65.75 579.364 65.2861 579.296 64.583C579.335 63.5771 579.633 62.3125 580.189 60.7891C580.756 59.2656 581.396 57.9228 582.108 56.7607C582.567 55.9795 583.051 55.1982 583.559 54.417C584.076 53.6357 584.506 53.001 584.848 52.5127C585.199 52.0244 585.834 51.1455 586.752 49.876C587.162 49.2998 587.504 48.8262 587.777 48.4551L586.371 48.3672L584.013 49.2754C583.827 49.2754 583.7 49.2461 583.632 49.1875C583.573 49.1289 583.524 49.0068 583.485 48.8213C583.515 48.6064 583.563 48.4014 583.632 48.206C583.075 48.1767 581.991 48.1279 580.38 48.0596C580.048 48.0498 579.716 48.04 579.384 48.0303Z" fill="#D9D9D9"/>
<path d="M553.676 50.5059V50.374C550.238 51.5752 547.528 52.5859 545.546 53.4062C543.563 54.2168 541.742 55.3154 540.082 56.7021C538.422 58.0889 537.592 59.6807 537.592 61.4775C537.592 62.1416 537.953 62.542 538.676 62.6787C540.766 62.6006 545.766 58.543 553.676 50.5059ZM557.279 48.8213C558.354 49.3584 558.891 50.0957 558.891 51.0332C558.891 52.0098 558.393 53.0742 557.396 54.2266C555.053 56.9512 553.852 58.9873 553.793 60.335C553.852 61.1357 554.35 61.5996 555.287 61.7266C556.352 61.7266 557.582 61.3311 558.979 60.54C560.375 59.7393 562.108 58.4941 564.179 56.8047L564.647 59.2656C563.476 60.457 561.991 61.7803 560.194 63.2354C558.397 64.6807 556.61 65.9209 554.833 66.9561C553.056 67.9814 551.61 68.4941 550.497 68.4941C549.042 68.1719 548.261 67.1758 548.153 65.5059C548.28 63.6602 549.062 61.3359 550.497 58.5332L550.38 58.416C550.243 58.5234 549.066 59.4707 546.85 61.2578C544.633 63.0449 542.938 64.3584 541.767 65.1982C540.595 66.0381 539.604 66.5996 538.793 66.8828C538.148 66.8828 537.382 66.5215 536.493 65.7988C535.604 65.0762 534.843 64.1533 534.208 63.0303C533.583 61.9072 533.271 60.8086 533.271 59.7344C533.271 59.0215 533.31 58.543 533.388 58.2988C533.827 56.6191 534.853 54.9736 536.464 53.3623C538.085 51.7412 539.999 50.2959 542.206 49.0264C544.423 47.7568 546.649 46.7266 548.886 45.9355C551.132 45.1348 553.109 44.6562 554.818 44.5H555.419C556.347 44.5 557.216 44.7734 558.026 45.3203C558.847 45.8672 559.257 46.5752 559.257 47.4443C559.257 47.9229 558.598 48.3818 557.279 48.8213Z" fill="#D9D9D9"/>
<path d="M501.996 57.7715C501.83 58.2402 501.615 58.792 501.352 59.4268C501.098 60.0615 500.683 60.6865 500.106 61.3018L499.594 61.8438C504.828 61.6973 509.13 61.1602 512.499 60.2324C515.868 59.2949 518.28 58.0547 519.735 56.5117C521.474 54.666 521.894 52.5859 520.995 50.2715C519.98 46.5801 516.645 44.6562 510.99 44.5C509.457 44.5977 507.514 44.7979 505.16 45.1006L504.56 47.3271C506.181 47.5615 507.348 47.874 508.061 48.2646C508.783 48.6455 509.013 48.9727 508.749 49.2461C508.417 49.6074 507.729 49.7881 506.684 49.7881C505.873 49.7881 504.906 49.666 503.783 49.4219L501.996 57.7715ZM509.994 32.752C509.975 32.7715 509.955 32.791 509.936 32.8105C509.34 33.4453 508.681 33.7627 507.958 33.7627L506.581 37.9668C507.177 37.918 508.051 37.8398 509.203 37.7324C510.355 37.6152 511.356 37.5322 512.206 37.4834C515.165 37.5127 517.958 37.8545 520.585 38.5088C523.212 39.1631 525.297 40.2227 526.84 41.6875C528.383 43.1426 528.988 45.1104 528.656 47.5908C528.324 50.0713 526.713 53.0449 523.822 56.5117C523.148 57.3125 522.646 57.8887 522.313 58.2402C518.31 62.498 513.734 65.4912 508.588 67.2197C503.451 68.958 498.134 69.8271 492.636 69.8271C490.38 69.8271 487.733 69.666 484.696 69.3438C478.251 68.5039 475.302 67.0635 475.849 65.0225C476.122 64.0264 476.396 63.0352 476.669 62.0488C476.942 61.0527 477.211 60.208 477.475 59.5146C477.748 58.8115 478.08 58.2305 478.471 57.7715C478.969 57.3711 479.418 57.1709 479.818 57.1709C480.932 57.4541 482.636 58.0107 484.931 58.8408C487.226 59.6611 489.213 60.2764 490.893 60.6865C492.582 61.0967 494.516 61.3018 496.693 61.3018L498.993 48.6455C496.522 47.8936 494.989 46.9951 494.394 45.9502C493.798 44.9053 494.018 43.8018 495.053 42.6396C496.459 41.2725 498.563 40.0762 501.366 39.0508C502.177 36.8145 502.846 34.959 503.373 33.4844C503.461 33.2305 503.549 32.9863 503.637 32.752H494.877L497.382 25.457H509.188C509.628 25.2715 510.028 25.1787 510.39 25.1787C510.829 25.1787 511.166 25.2715 511.4 25.457H531.63L529.11 32.752H509.994Z" fill="#D9D9D9"/>
<path d="M437.338 53.9922C438.402 52.166 439.848 50.4033 441.674 48.7041C442.26 48.1182 443.012 47.5615 443.93 47.0342C444.857 46.5068 445.746 46.2432 446.596 46.2432C447.191 46.2432 447.748 46.4043 448.266 46.7266C448.793 47.0488 449.057 47.4883 449.057 48.0449C449.057 48.9531 448.51 50.1152 447.416 51.5312C446.322 52.9473 445.072 54.2949 443.666 55.5742C443.52 55.7109 443.373 55.8428 443.227 55.9697V58.0938H440.59C440.58 58.4062 440.541 58.6748 440.473 58.8994C440.531 59.9736 440.814 60.7158 441.322 61.126C441.83 61.5264 442.685 61.7266 443.886 61.7266C445.048 61.7266 446.132 61.4092 447.138 60.7744C448.153 60.1396 449.95 58.8164 452.528 56.8047L453.012 59.1338C450.902 61.8877 448.72 64.0264 446.464 65.5498C444.218 67.0732 442.26 67.835 440.59 67.835C439.418 67.835 438.456 67.4785 437.704 66.7656C436.952 66.043 436.405 65.1348 436.063 64.041C435.722 62.9375 435.551 61.8242 435.551 60.7012C435.551 59.8027 435.629 58.9336 435.785 58.0938H429.047L425.429 67.2197H419.716L423.334 58.0938H422.689V53.9922H424.711L427.26 46.4482H432.958L430.424 53.9922H437.338Z" fill="#D9D9D9"/>
<path d="M407.133 50.5059V50.374C403.695 51.5752 400.985 52.5859 399.003 53.4062C397.021 54.2168 395.199 55.3154 393.539 56.7021C391.879 58.0889 391.049 59.6807 391.049 61.4775C391.049 62.1416 391.41 62.542 392.133 62.6787C394.223 62.6006 399.223 58.543 407.133 50.5059ZM410.736 48.8213C411.811 49.3584 412.348 50.0957 412.348 51.0332C412.348 52.0098 411.85 53.0742 410.854 54.2266C408.51 56.9512 407.309 58.9873 407.25 60.335C407.309 61.1357 407.807 61.5996 408.744 61.7266C409.809 61.7266 411.039 61.3311 412.436 60.54C413.832 59.7393 415.565 58.4941 417.636 56.8047L418.104 59.2656C416.933 60.457 415.448 61.7803 413.651 63.2354C411.854 64.6807 410.067 65.9209 408.29 66.9561C406.513 67.9814 405.067 68.4941 403.954 68.4941C402.499 68.1719 401.718 67.1758 401.61 65.5059C401.737 63.6602 402.519 61.3359 403.954 58.5332L403.837 58.416C403.7 58.5234 402.523 59.4707 400.307 61.2578C398.09 63.0449 396.396 64.3584 395.224 65.1982C394.052 66.0381 393.061 66.5996 392.25 66.8828C391.605 66.8828 390.839 66.5215 389.95 65.7988C389.062 65.0762 388.3 64.1533 387.665 63.0303C387.04 61.9072 386.728 60.8086 386.728 59.7344C386.728 59.0215 386.767 58.543 386.845 58.2988C387.284 56.6191 388.31 54.9736 389.921 53.3623C391.542 51.7412 393.456 50.2959 395.663 49.0264C397.88 47.7568 400.106 46.7266 402.343 45.9355C404.589 45.1348 406.566 44.6562 408.275 44.5H408.876C409.804 44.5 410.673 44.7734 411.483 45.3203C412.304 45.8672 412.714 46.5752 412.714 47.4443C412.714 47.9229 412.055 48.3818 410.736 48.8213Z" fill="#D9D9D9"/>
<path d="M346.181 55.7793L345.668 56.6436L328.471 64.7881C325.59 66.1943 323.749 66.8975 322.948 66.8975C322.431 66.8975 322.172 66.5947 322.172 65.9893C322.172 65.0518 322.504 64.1045 323.168 63.1475C323.832 62.1807 324.657 61.3848 325.644 60.7598C326.63 60.1348 327.572 59.7979 328.471 59.749C328.598 59.7783 328.778 59.8125 329.013 59.8516C329.247 59.8906 329.467 59.9395 329.672 59.998C334.945 57.2148 339.638 54.8223 343.749 52.8203C345.526 51.9512 347.001 51.2236 348.173 50.6377L350.59 44.3975C350.395 44.2803 350.18 44.1582 349.945 44.0312L333.51 34.5537C332.621 34.0557 331.718 33.2549 330.8 32.1514C329.882 31.0479 329.423 29.7881 329.423 28.3721C329.55 26.4873 330.053 25.5449 330.932 25.5449C331.361 25.5449 332.221 25.8867 333.51 26.5703L353.271 37.498L357.138 27.5518C357.167 27.542 357.201 27.5322 357.24 27.5225C358.91 26.9658 360.683 26.4971 362.558 26.1162C364.442 25.7354 366.312 25.5449 368.168 25.5449C368.852 25.5449 369.501 25.8428 370.116 26.4385C370.741 27.0244 371.244 27.7324 371.625 28.5625C372.006 29.3828 372.196 30.1152 372.196 30.7598C372.196 31.4727 372.074 31.9512 371.83 32.1953L367.626 38.2598L385.087 29.9834C387.968 28.5771 389.809 27.874 390.609 27.874C391.127 27.874 391.386 28.1768 391.386 28.7822C391.386 29.7197 391.054 30.6719 390.39 31.6387C389.726 32.5957 388.9 33.3867 387.914 34.0117C386.928 34.6367 385.985 34.9736 385.087 35.0225C384.96 34.9932 384.779 34.959 384.545 34.9199C384.311 34.8809 384.091 34.832 383.886 34.7734C378.612 37.5566 373.92 39.9492 369.809 41.9512C365.697 43.9531 363.197 45.2129 362.309 45.7305C361.43 46.2383 360.883 46.8096 360.668 47.4443C360.668 47.6494 360.609 47.9082 360.492 48.2207C360.551 48.5723 360.795 48.9189 361.225 49.2607C361.654 49.5928 362.45 50.0859 363.612 50.7402L380.048 60.2178C380.937 60.7158 381.84 61.5166 382.758 62.6201C383.676 63.7236 384.135 64.9834 384.135 66.3994C384.008 68.2842 383.505 69.2266 382.626 69.2266C382.196 69.2266 381.337 68.8848 380.048 68.2012L357.211 55.5742C357.152 55.8574 357.079 56.1455 356.991 56.4385C356.728 57.3076 356.405 58.25 356.024 59.2656C355.653 60.2715 355.463 60.833 355.453 60.9502C355.219 61.585 354.691 62.1611 353.871 62.6787C353.061 63.1865 352.489 63.5918 352.157 63.8945C349.677 65.8086 348.036 66.7656 347.235 66.7656C346.991 66.7656 346.869 66.668 346.869 66.4727C346.869 66.4336 346.874 66.3896 346.884 66.3408C346.513 66.5947 346.146 66.8145 345.785 67C344.936 67.4004 344.159 67.6006 343.456 67.6006C342.655 67.6006 342.191 67.2002 342.064 66.3994V66.3848L346.181 55.7793Z" fill="#D9D9D9"/>
<path fill-rule="evenodd" clip-rule="evenodd" d="M29.5 55C29.5 53.6193 30.6193 52.5 32 52.5L288 52.5C289.381 52.5 290.5 53.6193 290.5 55C290.5 56.3807 289.381 57.5 288 57.5L32 57.5C30.6193 57.5 29.5 56.3807 29.5 55Z" fill="#D9D9D9"/>
<path fill-rule="evenodd" clip-rule="evenodd" d="M456.5 54C456.5 52.6193 457.619 51.5 459 51.5H475C476.381 51.5 477.5 52.6193 477.5 54C477.5 55.3807 476.381 56.5 475 56.5H459C457.619 56.5 456.5 55.3807 456.5 54Z" fill="#D9D9D9"/>
</svg>
