<svg width="798" height="55" viewBox="0 0 798 55" fill="none" xmlns="http://www.w3.org/2000/svg">
<path d="M785.68 25.916C782.818 27.4395 780.621 28.8896 779.088 30.2666C777.564 31.6338 776.764 33.4062 776.686 35.584C776.686 37.0977 777.506 37.918 779.146 38.0449C780.885 37.8789 782.525 37.0586 784.068 35.584C783.551 34.6855 783.229 33.7822 783.102 32.874C783.209 31.0381 784.068 28.7188 785.68 25.916ZM790.733 23.1621C792.208 23.3379 792.945 24.4561 792.945 26.5166C792.945 28.6553 792.164 31.0381 790.602 33.665C790.924 33.665 791.163 33.7041 791.319 33.7822C792.081 33.7236 792.862 33.4307 793.663 32.9033C794.464 32.376 795.465 31.5459 796.666 30.4131L797.384 33.0059C795.978 34.8906 794.527 36.165 793.033 36.8291C791.539 37.4834 789.752 37.8447 787.672 37.9131C784.732 40.7939 781.812 42.2344 778.912 42.2344C776.754 42.2344 775.094 41.3604 773.932 39.6123C772.77 37.8643 772.188 35.8379 772.188 33.5332C772.188 31.0137 773.019 28.665 774.679 26.4873C776.339 24.2998 778.453 22.5713 781.021 21.3018C783.59 20.0225 786.124 19.3828 788.624 19.3828C790.87 19.3828 791.993 20.0029 791.993 21.2432C791.993 21.9951 791.573 22.6348 790.733 23.1621Z" fill="#D9D9D9"/>
<path d="M752.516 26.6338C758.346 22.7178 762.345 20.7598 764.513 20.7598C765.333 20.7598 765.968 21.0674 766.417 21.6826C766.866 22.2881 767.091 23.001 767.091 23.8213C767.091 26.8779 763.873 31.2188 757.438 36.8438C758.395 36.8438 759.073 36.8828 759.474 36.9609C760.567 36.9121 761.544 36.7314 762.403 36.4189C763.263 36.1064 764.283 35.5107 765.465 34.6318C766.646 33.7529 768.189 32.4492 770.094 30.7207L770.577 33.665C768.585 35.5596 766.617 37.1514 764.674 38.4404C762.74 39.7295 760.919 40.6865 759.21 41.3115C757.501 41.9268 755.909 42.2344 754.435 42.2344C752.628 42.2344 751.129 41.7559 749.938 40.7988C749.312 41.0527 748.351 41.2529 747.052 41.3994C746.036 41.2529 745.318 41.0918 744.898 40.916C744.41 41.6777 743.653 43.0938 742.628 45.1641C741.603 47.2344 740.787 48.8408 740.182 49.9834C739.586 51.1357 738.927 52.1611 738.204 53.0596C737.481 53.9678 736.793 54.4219 736.139 54.4219C735.25 54.1582 734.806 53.1768 734.806 51.4775C734.806 49.29 735.489 47.1123 736.856 44.9443C737.257 44.3096 737.96 43.2207 738.966 41.6777C739.972 40.125 740.836 38.7871 741.559 37.6641C742.291 36.541 743.209 35.0762 744.312 33.2695C745.426 31.4629 746.681 29.373 748.077 27V26.7656L738.585 35.877L738.351 33.123L750.055 20.335C753.668 16.4189 755.548 14.3828 755.694 14.2266C756.563 13.2207 757.701 12.7178 759.107 12.7178C759.654 12.7178 760.221 12.835 760.807 13.0693C761.393 13.3037 761.686 13.6455 761.686 14.0947C761.686 14.583 761.427 15.1348 760.909 15.75C760.401 16.3652 759.43 17.4297 757.994 18.9434C756.568 20.457 755.411 21.8047 754.522 22.9863C753.634 24.1582 752.965 25.374 752.516 26.6338ZM748.912 35.335C749.156 35.2568 749.576 35.2178 750.172 35.2178C751.188 35.2178 752.447 35.4375 753.951 35.877C755.895 33.6113 757.149 32.1318 757.716 31.4385C758.292 30.7451 758.756 30.0713 759.107 29.417C759.469 28.7529 759.649 28.1084 759.649 27.4834C759.649 27.1611 759.469 27 759.107 27C758.482 27 757.496 27.4297 756.148 28.2891C754.811 29.1387 753.463 30.2129 752.105 31.5117C750.748 32.8008 749.684 34.0752 748.912 35.335Z" fill="#D9D9D9"/>
<path d="M721.461 25.916C718.6 27.4395 716.402 28.8896 714.869 30.2666C713.346 31.6338 712.545 33.4062 712.467 35.584C712.467 37.0977 713.287 37.918 714.928 38.0449C716.666 37.8789 718.307 37.0586 719.85 35.584C719.332 34.6855 719.01 33.7822 718.883 32.874C718.99 31.0381 719.85 28.7188 721.461 25.916ZM726.515 23.1621C727.989 23.3379 728.727 24.4561 728.727 26.5166C728.727 28.6553 727.945 31.0381 726.383 33.665C726.705 33.665 726.944 33.7041 727.101 33.7822C727.862 33.7236 728.644 33.4307 729.444 32.9033C730.245 32.376 731.246 31.5459 732.447 30.4131L733.165 33.0059C731.759 34.8906 730.309 36.165 728.814 36.8291C727.32 37.4834 725.533 37.8447 723.453 37.9131C720.514 40.7939 717.594 42.2344 714.693 42.2344C712.535 42.2344 710.875 41.3604 709.713 39.6123C708.551 37.8643 707.97 35.8379 707.97 33.5332C707.97 31.0137 708.8 28.665 710.46 26.4873C712.12 24.2998 714.234 22.5713 716.803 21.3018C719.371 20.0225 721.905 19.3828 724.405 19.3828C726.651 19.3828 727.774 20.0029 727.774 21.2432C727.774 21.9951 727.354 22.6348 726.515 23.1621Z" fill="#D9D9D9"/>
<path d="M682.569 13.2598L700.03 4.9834C702.911 3.57715 704.752 2.87402 705.553 2.87402C706.07 2.87402 706.329 3.17676 706.329 3.78223C706.329 4.71973 705.997 5.67188 705.333 6.63867C704.669 7.5957 703.844 8.38672 702.857 9.01172C701.871 9.63672 700.929 9.97363 700.03 10.0225C699.903 9.99316 699.723 9.95898 699.488 9.91992C699.254 9.88086 699.034 9.83203 698.829 9.77344C693.556 12.5566 688.863 14.9492 684.752 16.9512C680.641 18.9531 678.141 20.2129 677.252 20.7305C676.373 21.2383 675.826 21.8096 675.611 22.4443C675.611 22.6494 675.553 22.9082 675.436 23.2207C675.494 23.5723 675.738 23.9189 676.168 24.2607C676.598 24.5928 677.394 25.0859 678.556 25.7402L694.991 35.2178C695.88 35.7158 696.783 36.5166 697.701 37.6201C698.619 38.7236 699.078 39.9834 699.078 41.3994C698.951 43.2842 698.448 44.2266 697.569 44.2266C697.14 44.2266 696.28 43.8848 694.991 43.2012L670.807 29.8271L666.017 35.584C666.017 36.2578 665.753 37.0146 665.226 37.8545C664.698 38.6846 664.015 39.4805 663.175 40.2422C662.345 41.0039 661.529 41.5898 660.729 42C659.879 42.4004 659.103 42.6006 658.399 42.6006C657.599 42.6006 657.135 42.2002 657.008 41.3994C657.164 40.4619 657.584 39.5244 658.268 38.5869L667.335 27C666.759 26.2188 666.397 25.3203 666.251 24.3047C666.29 23.2305 666.769 22.2832 667.687 21.4629C668.614 20.6328 670.216 19.627 672.491 18.4453C674.776 17.2637 676.056 16.5947 676.329 16.4385L682.218 7.44434C678.858 8.17676 675.787 9.06543 673.004 10.1104C670.221 11.1455 667.721 12.2148 665.504 13.3184C663.297 14.4121 661.373 15.3594 659.732 16.1602C658.092 16.9609 656.744 17.4541 655.689 17.6396C654.938 17.6396 654.415 17.4834 654.122 17.1709C653.839 16.8486 653.663 16.3652 653.595 15.7207C653.634 14.998 653.78 14.2021 654.034 13.333C654.298 12.4639 654.615 11.5264 654.986 10.5205C655.367 9.50488 655.562 8.93848 655.572 8.82129C655.807 8.18652 656.329 7.61523 657.14 7.10742C657.96 6.58984 658.536 6.17969 658.868 5.87695C661.349 3.96289 662.989 3.00586 663.79 3.00586C664.034 3.00586 664.156 3.10352 664.156 3.29883C664.156 3.69922 663.844 4.25586 663.219 4.96875C662.604 5.68164 661.817 6.30664 660.86 6.84375C662.862 6.0625 664.83 5.29102 666.764 4.5293C668.707 3.75781 670.514 3.09375 672.184 2.53711C673.854 1.9707 675.626 1.49707 677.501 1.11621C679.386 0.735352 681.256 0.544922 683.111 0.544922C683.795 0.544922 684.444 0.842773 685.06 1.43848C685.685 2.02441 686.188 2.73242 686.568 3.5625C686.949 4.38281 687.14 5.11523 687.14 5.75977C687.14 6.47266 687.018 6.95117 686.773 7.19531L682.569 13.2598Z" fill="#D9D9D9"/>
<path d="M615.274 35.5254C615.177 35.8086 615.05 36.1406 614.894 36.5215C614.737 36.9023 614.483 37.2783 614.132 37.6494L613.824 37.9717C616.969 37.8838 619.552 37.5615 621.573 37.0049C623.595 36.4482 625.04 35.7061 625.909 34.7783C626.954 33.665 627.208 32.415 626.671 31.0283C626.056 28.8213 624.054 27.6689 620.665 27.5713C619.747 27.6299 618.58 27.752 617.164 27.9375L616.813 29.2705C617.779 29.4072 618.478 29.5928 618.907 29.8271C619.337 30.0615 619.474 30.2568 619.317 30.4131C619.122 30.6377 618.712 30.75 618.087 30.75C617.599 30.75 617.018 30.6768 616.344 30.5303L615.274 35.5254ZM613.473 30.0615C611.988 29.6123 611.065 29.0752 610.704 28.4502C610.353 27.8154 610.489 27.1514 611.114 26.458C611.954 25.6377 613.214 24.9199 614.894 24.3047C615.382 22.9668 615.782 21.8584 616.095 20.9795C616.417 20.0908 616.715 19.373 616.988 18.8262C617.272 18.2695 617.657 17.7227 618.146 17.1855C618.458 16.8535 618.814 16.5703 619.215 16.3359C619.625 16.1016 619.986 15.9844 620.299 15.9844C621.022 15.9844 621.29 16.4043 621.105 17.2441C621.056 17.4297 620.968 17.8203 620.841 18.416C620.714 19.0117 620.597 19.4658 620.489 19.7783C620.392 20.0811 620.24 20.3447 620.035 20.5693C619.674 20.9502 619.278 21.1406 618.849 21.1406L618.028 23.6602C618.38 23.6309 618.902 23.582 619.596 23.5137C620.289 23.4453 620.89 23.3965 621.397 23.3672C623.165 23.3867 624.835 23.5918 626.407 23.9824C627.989 24.373 629.244 25.0078 630.172 25.8867C631.1 26.7559 631.461 27.9375 631.256 29.4316C631.061 30.916 630.094 32.6982 628.355 34.7783C627.955 35.2568 627.657 35.6035 627.462 35.8184C625.06 38.3672 622.315 40.1592 619.23 41.1943C616.524 42.1123 613.736 42.625 610.865 42.7324L612.096 37.6494L613.473 30.0615Z" fill="#D9D9D9"/>
<path d="M592.408 34.5L592.291 34.2656C590.416 36.2285 588.966 37.6934 587.94 38.6602C586.925 39.627 585.948 40.3887 585.011 40.9453C584.083 41.4922 583.189 41.7656 582.33 41.7656C580.953 41.5801 579.898 40.96 579.166 39.9053C578.434 38.8506 578.067 37.5078 578.067 35.877C579.591 31.0625 581.129 28.5234 582.682 28.2598C584.234 27.9961 584.156 30.1152 582.447 34.6172C582.535 34.7832 582.579 34.9834 582.579 35.2178C582.579 35.4326 582.716 35.5938 582.989 35.7012C584.386 35.4082 585.758 34.8125 587.105 33.9141C588.463 33.0059 591.095 30.7402 595.001 27.1172C598.937 23.1816 601.935 20.6035 603.995 19.3828C604.151 19.3047 604.352 19.2656 604.596 19.2656C605.016 19.2656 605.348 19.583 605.592 20.2178C605.846 20.8428 605.973 21.585 605.973 22.4443C605.973 23.2061 605.895 23.7432 605.738 24.0557C605.152 24.9248 604.068 26.126 602.486 27.6592C600.904 29.1826 599.698 30.5059 598.868 31.6289C598.048 32.7422 597.574 34.0215 597.447 35.4668C597.652 35.9453 597.818 36.2432 597.945 36.3604C598.072 36.4775 598.37 36.5996 598.839 36.7266C600.694 36.5703 603.814 34.6465 608.199 30.9551L608.551 33.5332C606.314 35.8379 604.391 37.6885 602.779 39.085C601.168 40.4814 599.737 41.5312 598.487 42.2344C597.237 42.9375 596.114 43.3184 595.118 43.377C593.966 43.377 593.019 43.0498 592.276 42.3955C591.544 41.7412 591.148 40.75 591.09 39.4219C591.227 37.791 591.666 36.1504 592.408 34.5Z" fill="#D9D9D9"/>
<path d="M560.299 34.5L560.182 34.2656C558.307 36.2285 556.856 37.6934 555.831 38.6602C554.815 39.627 553.839 40.3887 552.901 40.9453C551.974 41.4922 551.08 41.7656 550.221 41.7656C548.844 41.5801 547.789 40.96 547.057 39.9053C546.324 38.8506 545.958 37.5078 545.958 35.877C545.958 33.6504 546.52 31.3506 547.643 28.9775C548.766 26.6045 550.294 24.6416 552.228 23.0889C554.161 21.5361 556.256 20.7598 558.512 20.7598C559.869 20.7598 560.548 21.1211 560.548 21.8438C560.548 22.4883 560.064 23.3477 559.098 24.4219C556.91 26.8633 554.952 28.665 553.224 29.8271C551.485 31.1064 550.523 32.7031 550.338 34.6172C550.426 34.7832 550.47 34.9834 550.47 35.2178C550.47 35.4326 550.606 35.5938 550.88 35.7012C552.276 35.4082 553.648 34.8125 554.996 33.9141C556.354 33.0059 557.647 31.9854 558.878 30.8525C560.108 29.7197 561.446 28.4746 562.892 27.1172C566.827 23.1816 569.825 20.6035 571.886 19.3828C572.042 19.3047 572.242 19.2656 572.486 19.2656C572.906 19.2656 573.238 19.583 573.482 20.2178C573.736 20.8428 573.863 21.585 573.863 22.4443C573.863 23.2061 573.785 23.7432 573.629 24.0557C573.043 24.9248 571.959 26.126 570.377 27.6592C568.795 29.1826 567.589 30.5059 566.759 31.6289C565.938 32.7422 565.465 34.0215 565.338 35.4668C565.543 35.9453 565.709 36.2432 565.836 36.3604C565.963 36.4775 566.261 36.5996 566.729 36.7266C568.585 36.5703 571.705 34.6465 576.09 30.9551L576.441 33.5332C574.205 35.8379 572.281 37.6885 570.67 39.085C569.059 40.4814 567.628 41.5312 566.378 42.2344C565.128 42.9375 564.005 43.3184 563.009 43.377C561.856 43.377 560.909 43.0498 560.167 42.3955C559.435 41.7412 559.039 40.75 558.98 39.4219C559.117 37.791 559.557 36.1504 560.299 34.5Z" fill="#D9D9D9"/>
<path d="M527.926 34.5732C526.705 35.833 525.602 36.9121 524.615 37.8105C523.004 39.2949 521.573 40.4228 520.323 41.1943C519.073 41.956 517.95 42.3906 516.954 42.498C515.802 42.5566 514.854 42.2783 514.112 41.6631C513.38 41.0478 512.984 40.0762 512.926 38.748C513.062 37.1172 513.502 35.457 514.244 33.7676L514.127 33.5332C512.252 35.5937 510.802 37.1367 509.776 38.1621C508.761 39.1777 507.784 39.9883 506.847 40.5937C505.919 41.1894 505.025 41.5068 504.166 41.5459C502.789 41.4287 501.734 40.8623 501.002 39.8467C500.27 38.831 499.903 37.5078 499.903 35.8769C501.427 30.9844 502.965 28.3672 504.518 28.0254C506.07 27.6836 505.992 29.8076 504.283 34.3974C504.371 34.5537 504.415 34.749 504.415 34.9834C504.415 35.1982 504.552 35.3545 504.825 35.4521C506.222 35.081 507.594 34.4121 508.941 33.4453C510.299 32.4687 512.931 30.0713 516.837 26.2529C520.772 22.1123 523.771 19.3779 525.831 18.0498C525.987 17.9619 526.188 17.9131 526.432 17.9033C526.852 17.8838 527.184 18.1816 527.428 18.7969C527.682 19.4121 527.809 20.1494 527.809 21.0088C527.809 21.7705 527.73 22.3125 527.574 22.6348C526.988 23.5332 525.904 24.7881 524.322 26.3994C522.74 28.0107 521.534 29.3974 520.704 30.5596C519.884 31.7119 519.41 33.0156 519.283 34.4707C519.488 34.9297 519.654 35.2178 519.781 35.3349C520.826 34.9443 521.861 34.3828 522.887 33.6504C524.234 32.6738 526.861 30.2764 530.768 26.458C534.703 22.3174 537.701 19.583 539.762 18.2549C539.918 18.167 540.118 18.1181 540.362 18.1084C540.782 18.0889 541.114 18.3867 541.358 19.0019C541.612 19.6172 541.739 20.3545 541.739 21.2139C541.739 21.9756 541.661 22.5176 541.505 22.8398C540.919 23.7383 539.835 24.9931 538.253 26.6045C536.671 28.2158 535.465 29.6025 534.635 30.7646C533.814 31.917 533.341 33.2207 533.214 34.6758C533.419 35.1445 533.585 35.4375 533.712 35.5547C533.839 35.6621 534.137 35.7646 534.605 35.8623C536.461 35.6084 539.581 33.5234 543.966 29.6074L544.317 32.1709C542.081 34.5928 540.157 36.5459 538.546 38.0303C536.935 39.5049 535.504 40.6279 534.254 41.3994C533.004 42.1611 531.881 42.5957 530.885 42.7031C529.732 42.7617 528.785 42.4834 528.043 41.8682C527.311 41.2529 526.915 40.2812 526.856 38.9531C526.974 37.5176 527.33 36.0576 527.926 34.5732Z" fill="#D9D9D9"/>
<path d="M487.32 25.5059V25.374C483.883 26.5752 481.173 27.5859 479.19 28.4062C477.208 29.2168 475.387 30.3154 473.727 31.7021C472.066 33.0889 471.236 34.6807 471.236 36.4775C471.236 37.1416 471.598 37.542 472.32 37.6787C474.41 37.6006 479.41 33.543 487.32 25.5059ZM490.924 23.8213C491.998 24.3584 492.535 25.0957 492.535 26.0332C492.535 27.0098 492.037 28.0742 491.041 29.2266C488.697 31.9512 487.496 33.9873 487.438 35.335C487.496 36.1357 487.994 36.5996 488.932 36.7266C489.996 36.7266 491.227 36.3311 492.623 35.54C494.02 34.7393 495.753 33.4941 497.823 31.8047L498.292 34.2656C497.12 35.457 495.636 36.7803 493.839 38.2354C492.042 39.6807 490.255 40.9209 488.478 41.9561C486.7 42.9814 485.255 43.4941 484.142 43.4941C482.687 43.1719 481.905 42.1758 481.798 40.5059C481.925 38.6602 482.706 36.3359 484.142 33.5332L484.024 33.416C483.888 33.5234 482.711 34.4707 480.494 36.2578C478.277 38.0449 476.583 39.3584 475.411 40.1982C474.239 41.0381 473.248 41.5996 472.438 41.8828C471.793 41.8828 471.026 41.5215 470.138 40.7988C469.249 40.0762 468.487 39.1533 467.853 38.0303C467.228 36.9072 466.915 35.8086 466.915 34.7344C466.915 34.0215 466.954 33.543 467.032 33.2988C467.472 31.6191 468.497 29.9736 470.108 28.3623C471.729 26.7412 473.644 25.2959 475.851 24.0264C478.067 22.7568 480.294 21.7266 482.53 20.9355C484.776 20.1348 486.754 19.6562 488.463 19.5H489.063C489.991 19.5 490.86 19.7734 491.671 20.3203C492.491 20.8672 492.901 21.5752 492.901 22.4443C492.901 22.9229 492.242 23.3818 490.924 23.8213Z" fill="#D9D9D9"/>
<path d="M441.515 13.2598L458.976 4.9834C461.856 3.57715 463.697 2.87402 464.498 2.87402C465.016 2.87402 465.274 3.17676 465.274 3.78223C465.274 4.71973 464.942 5.67188 464.278 6.63867C463.614 7.5957 462.789 8.38672 461.803 9.01172C460.816 9.63672 459.874 9.97363 458.976 10.0225C458.849 9.99316 458.668 9.95898 458.434 9.91992C458.199 9.88086 457.979 9.83203 457.774 9.77344C452.501 12.5566 447.809 14.9492 443.697 16.9512C439.586 18.9531 437.086 20.2129 436.197 20.7305C435.318 21.2383 434.771 21.8096 434.557 22.4443C434.557 22.6494 434.498 22.9082 434.381 23.2207C434.439 23.5723 434.684 23.9189 435.113 24.2607C435.543 24.5928 436.339 25.0859 437.501 25.7402L453.937 35.2178C454.825 35.7158 455.729 36.5166 456.646 37.6201C457.564 38.7236 458.023 39.9834 458.023 41.3994C457.896 43.2842 457.394 44.2266 456.515 44.2266C456.085 44.2266 455.226 43.8848 453.937 43.2012L429.752 29.8271L424.962 35.584C424.962 36.2578 424.698 37.0146 424.171 37.8545C423.644 38.6846 422.96 39.4805 422.12 40.2422C421.29 41.0039 420.475 41.5898 419.674 42C418.824 42.4004 418.048 42.6006 417.345 42.6006C416.544 42.6006 416.08 42.2002 415.953 41.3994C416.109 40.4619 416.529 39.5244 417.213 38.5869L426.28 27C425.704 26.2188 425.343 25.3203 425.196 24.3047C425.235 23.2305 425.714 22.2832 426.632 21.4629C427.56 20.6328 429.161 19.627 431.437 18.4453C433.722 17.2637 435.001 16.5947 435.274 16.4385L441.163 7.44434C437.804 8.17676 434.732 9.06543 431.949 10.1104C429.166 11.1455 426.666 12.2148 424.449 13.3184C422.242 14.4121 420.318 15.3594 418.678 16.1602C417.037 16.9609 415.689 17.4541 414.635 17.6396C413.883 17.6396 413.36 17.4834 413.067 17.1709C412.784 16.8486 412.608 16.3652 412.54 15.7207C412.579 14.998 412.726 14.2021 412.979 13.333C413.243 12.4639 413.561 11.5264 413.932 10.5205C414.312 9.50488 414.508 8.93848 414.518 8.82129C414.752 8.18652 415.274 7.61523 416.085 7.10742C416.905 6.58984 417.481 6.17969 417.813 5.87695C420.294 3.96289 421.935 3.00586 422.735 3.00586C422.979 3.00586 423.102 3.10352 423.102 3.29883C423.102 3.69922 422.789 4.25586 422.164 4.96875C421.549 5.68164 420.763 6.30664 419.806 6.84375C421.808 6.0625 423.775 5.29102 425.709 4.5293C427.652 3.75781 429.459 3.09375 431.129 2.53711C432.799 1.9707 434.571 1.49707 436.446 1.11621C438.331 0.735352 440.201 0.544922 442.057 0.544922C442.74 0.544922 443.39 0.842773 444.005 1.43848C444.63 2.02441 445.133 2.73242 445.514 3.5625C445.895 4.38281 446.085 5.11523 446.085 5.75977C446.085 6.47266 445.963 6.95117 445.719 7.19531L441.515 13.2598Z" fill="#D9D9D9"/>
<path d="M359.688 23.0303C359.571 23.2353 359.488 23.3769 359.439 23.4551L353.536 33.4453C353.38 33.7187 353.053 34.3144 352.555 35.2324C352.057 36.1406 351.612 37.1123 351.222 38.1474C350.841 39.1826 350.65 40.0957 350.65 40.8867C350.65 41.1797 350.689 41.458 350.768 41.7217C350.768 42.2685 350.626 42.542 350.343 42.542C349.62 42.542 348.551 41.9902 347.135 40.8867C346.832 40.6523 346.642 40.1836 346.563 39.4805C346.603 38.4844 346.9 37.2246 347.457 35.7012C348.023 34.1777 348.663 32.8349 349.376 31.6728C349.835 30.8818 350.318 30.0957 350.826 29.3144C351.344 28.5332 351.773 27.8984 352.115 27.4101C352.467 26.9219 353.102 26.0478 354.02 24.7881C354.547 24.0557 354.952 23.4941 355.235 23.1035C354.747 23.123 354.288 23.1523 353.858 23.1914L351.28 24.1728C351.104 24.1728 350.982 24.1435 350.914 24.0849C350.855 24.0361 350.807 23.9238 350.768 23.748C350.387 23.8555 350.045 23.9922 349.742 24.1582C348.922 24.3926 348.414 24.3779 348.219 24.1142C347.721 23.4599 347.813 22.2539 348.497 20.4961C348.644 20.1348 349.21 19.7734 350.196 19.4121C351.72 19.0215 353.814 18.7627 356.48 18.6357C356.998 18.6064 357.506 18.5869 358.004 18.5771C358.287 18.4795 358.526 18.4307 358.722 18.4307C358.888 18.4307 359.044 18.4697 359.19 18.5478C360.821 18.5283 362.359 18.5771 363.805 18.6943C365.299 18.7822 366.808 18.8945 368.331 19.0312C368.878 19.0801 369.4 19.1338 369.898 19.1924C370.045 19.1045 370.182 19.0264 370.309 18.958C370.914 18.6748 371.397 18.5332 371.759 18.5332C372.228 18.5332 372.618 18.8457 372.931 19.4707V19.5C373.946 19.6172 375.406 19.7832 377.311 19.998C378.385 20.1348 379.283 20.2471 380.006 20.3349C380.064 20.2959 380.123 20.2568 380.182 20.2178C380.387 20.1103 380.577 20.0029 380.753 19.8955L376.344 17.2881C376.217 17.1221 376.173 16.9951 376.212 16.9072C376.251 16.8193 376.393 16.7266 376.637 16.6289C377.955 16.3555 379.161 16.4482 380.255 16.9072C381.339 17.376 382.545 17.8935 383.873 18.4599C383.961 18.4404 384.049 18.4307 384.137 18.4307C384.488 18.4307 384.791 18.6064 385.045 18.958C386.5 19.5928 387.613 20.1006 388.385 20.4814C389.234 20.9209 389.786 21.3066 390.04 21.6387C390.362 22.0586 390.157 22.5371 389.425 23.0742C388.692 23.6113 387.936 23.9873 387.154 24.2021C386.783 24.3096 386.412 24.3828 386.041 24.4219C385.68 24.4609 385.328 24.4756 384.986 24.4658C384.762 24.4658 384.518 24.4609 384.254 24.4512L378.937 33.4453C378.78 33.7187 378.453 34.3144 377.955 35.2324C377.467 36.1406 377.027 37.1123 376.637 38.1474C376.246 39.1826 376.051 40.0957 376.051 40.8867C376.051 41.1797 376.09 41.458 376.168 41.7217C376.168 42.2685 376.031 42.542 375.758 42.542C375.035 42.542 373.961 41.9902 372.535 40.8867C372.232 40.6523 372.042 40.1836 371.964 39.4805C372.003 38.4844 372.306 37.2246 372.872 35.7012C373.438 34.1777 374.073 32.8349 374.776 31.6728C375.245 30.8818 375.733 30.0957 376.241 29.3144C376.759 28.5332 377.188 27.8984 377.53 27.4101C377.882 26.9219 378.512 26.0478 379.42 24.7881C379.576 24.5732 379.723 24.373 379.859 24.1875L377.105 24.0264L376.695 24.1728C376.51 24.1728 376.383 24.1435 376.314 24.0849C376.295 24.0654 376.271 24.0264 376.241 23.9678L372.374 23.7334L366.573 33.5332C366.417 33.8164 366.09 34.417 365.592 35.3349C365.094 36.2432 364.649 37.2148 364.259 38.25C363.878 39.2851 363.688 40.1933 363.688 40.9746C363.688 41.2676 363.722 41.5508 363.79 41.8242C363.79 42.3711 363.653 42.6445 363.38 42.6445C362.657 42.6445 361.588 42.0879 360.172 40.9746C359.859 40.75 359.669 40.2861 359.601 39.583C359.64 38.5771 359.938 37.3125 360.494 35.7891C361.061 34.2656 361.7 32.9228 362.413 31.7607C362.872 30.9795 363.355 30.1982 363.863 29.417C364.381 28.6357 364.811 28.001 365.152 27.5127C365.504 27.0244 366.139 26.1455 367.057 24.876C367.467 24.2998 367.809 23.8262 368.082 23.4551L366.676 23.3672L364.317 24.2754C364.132 24.2754 364.005 24.2461 363.937 24.1875C363.878 24.1289 363.829 24.0068 363.79 23.8213C363.819 23.6064 363.868 23.4014 363.937 23.206C363.38 23.1767 362.296 23.1279 360.685 23.0596C360.353 23.0498 360.021 23.04 359.688 23.0303Z" fill="#D9D9D9"/>
<path d="M333.775 26.8828C333.609 27.0195 332.745 27.6104 331.183 28.6553C329.62 29.7002 328.438 30.6475 327.638 31.4971C326.837 32.3467 326.383 33.3086 326.275 34.3828C326.549 36.1797 328.087 37.2393 330.89 37.5615C334.454 37.4248 338.893 35.0859 344.205 30.5449L344.923 33.0059C338.673 39.4805 333.316 42.7178 328.854 42.7178C327.232 42.7178 325.904 42.2588 324.869 41.3408C323.834 40.4229 323.087 39.2607 322.628 37.8545C322.179 36.4385 321.954 34.959 321.954 33.416C321.954 31.9121 322.247 30.5498 322.833 29.3291C323.429 28.0986 324.298 26.9561 325.44 25.9014C326.593 24.8369 328.087 23.7627 329.923 22.6787C334.103 20.1592 337.306 18.8994 339.532 18.8994C340.362 18.8994 341.036 19.1289 341.554 19.5879C342.081 20.0469 342.345 20.6768 342.345 21.4775C342.345 22.8447 341.524 24.5244 339.884 26.5166C338.292 28.4209 336.896 29.4414 335.694 29.5781C334.718 29.4805 334.078 28.582 333.775 26.8828Z" fill="#D9D9D9"/>
<path d="M304.186 34.5L304.068 34.2656C302.193 36.2285 300.743 37.6934 299.718 38.6602C298.702 39.627 297.726 40.3887 296.788 40.9453C295.86 41.4922 294.967 41.7656 294.107 41.7656C292.73 41.5801 291.676 40.96 290.943 39.9053C290.211 38.8506 289.845 37.5078 289.845 35.877C289.845 33.6504 290.406 31.3506 291.529 28.9775C292.652 26.6045 294.181 24.6416 296.114 23.0889C298.048 21.5361 300.143 20.7598 302.398 20.7598C303.756 20.7598 304.435 21.1211 304.435 21.8438C304.435 22.4883 303.951 23.3477 302.984 24.4219C300.797 26.8633 298.839 28.665 297.11 29.8271C295.372 31.1064 294.41 32.7031 294.225 34.6172C294.312 34.7832 294.356 34.9834 294.356 35.2178C294.356 35.4326 294.493 35.5938 294.767 35.7012C296.163 35.4082 297.535 34.8125 298.883 33.9141C300.24 33.0059 301.534 31.9854 302.765 30.8525C303.995 29.7197 305.333 28.4746 306.778 27.1172C310.714 23.1816 313.712 20.6035 315.772 19.3828C315.929 19.3047 316.129 19.2656 316.373 19.2656C316.793 19.2656 317.125 19.583 317.369 20.2178C317.623 20.8428 317.75 21.585 317.75 22.4443C317.75 23.2061 317.672 23.7432 317.516 24.0557C316.93 24.9248 315.846 26.126 314.264 27.6592C312.682 29.1826 311.476 30.5059 310.646 31.6289C309.825 32.7422 309.352 34.0215 309.225 35.4668C309.43 35.9453 309.596 36.2432 309.723 36.3604C309.85 36.4775 310.147 36.5996 310.616 36.7266C312.472 36.5703 315.592 34.6465 319.977 30.9551L320.328 33.5332C318.092 35.8379 316.168 37.6885 314.557 39.085C312.945 40.4814 311.515 41.5312 310.265 42.2344C309.015 42.9375 307.892 43.3184 306.896 43.377C305.743 43.377 304.796 43.0498 304.054 42.3955C303.321 41.7412 302.926 40.75 302.867 39.4219C303.004 37.791 303.443 36.1504 304.186 34.5Z" fill="#D9D9D9"/>
<path d="M257.384 23.0303C257.267 23.2353 257.184 23.3769 257.135 23.4551L251.231 33.4453C251.075 33.7187 250.748 34.3144 250.25 35.2324C249.752 36.1406 249.308 37.1123 248.917 38.1474C248.536 39.1826 248.346 40.0957 248.346 40.8867C248.346 41.1797 248.385 41.458 248.463 41.7217C248.463 42.2685 248.321 42.542 248.038 42.542C247.315 42.542 246.246 41.9902 244.83 40.8867C244.527 40.6523 244.337 40.1836 244.259 39.4805C244.298 38.4844 244.596 37.2246 245.152 35.7012C245.719 34.1777 246.358 32.8349 247.071 31.6728C247.53 30.8818 248.014 30.0957 248.521 29.3144C249.039 28.5332 249.469 27.8984 249.811 27.4101C250.162 26.9219 250.797 26.0478 251.715 24.7881C252.242 24.0557 252.647 23.4941 252.931 23.1035C252.442 23.123 251.983 23.1523 251.554 23.1914L248.976 24.1728C248.8 24.1728 248.678 24.1435 248.609 24.0849C248.551 24.0361 248.502 23.9238 248.463 23.748C248.082 23.8555 247.74 23.9922 247.438 24.1582C246.617 24.3926 246.109 24.3779 245.914 24.1142C245.416 23.4599 245.509 22.2539 246.192 20.4961C246.339 20.1348 246.905 19.7734 247.892 19.4121C249.415 19.0215 251.51 18.7627 254.176 18.6357C254.693 18.6064 255.201 18.5869 255.699 18.5771C255.982 18.4795 256.222 18.4307 256.417 18.4307C256.583 18.4307 256.739 18.4697 256.886 18.5478C258.517 18.5283 260.055 18.5771 261.5 18.6943C262.994 18.7822 264.503 18.8945 266.026 19.0312C266.573 19.0801 267.096 19.1338 267.594 19.1924C267.74 19.1045 267.877 19.0264 268.004 18.958C268.609 18.6748 269.093 18.5332 269.454 18.5332C269.923 18.5332 270.313 18.8457 270.626 19.4707V19.5C271.642 19.6172 273.102 19.7832 275.006 19.998C276.08 20.1348 276.979 20.2471 277.701 20.3349C277.76 20.2959 277.818 20.2568 277.877 20.2178C278.082 20.1103 278.272 20.0029 278.448 19.8955L274.039 17.2881C273.912 17.1221 273.868 16.9951 273.907 16.9072C273.946 16.8193 274.088 16.7266 274.332 16.6289C275.65 16.3555 276.856 16.4482 277.95 16.9072C279.034 17.376 280.24 17.8935 281.568 18.4599C281.656 18.4404 281.744 18.4307 281.832 18.4307C282.184 18.4307 282.486 18.6064 282.74 18.958C284.195 19.5928 285.309 20.1006 286.08 20.4814C286.93 20.9209 287.481 21.3066 287.735 21.6387C288.058 22.0586 287.853 22.5371 287.12 23.0742C286.388 23.6113 285.631 23.9873 284.85 24.2021C284.479 24.3096 284.107 24.3828 283.736 24.4219C283.375 24.4609 283.023 24.4756 282.682 24.4658C282.457 24.4658 282.213 24.4609 281.949 24.4512L276.632 33.4453C276.476 33.7187 276.148 34.3144 275.65 35.2324C275.162 36.1406 274.723 37.1123 274.332 38.1474C273.941 39.1826 273.746 40.0957 273.746 40.8867C273.746 41.1797 273.785 41.458 273.863 41.7217C273.863 42.2685 273.727 42.542 273.453 42.542C272.73 42.542 271.656 41.9902 270.23 40.8867C269.928 40.6523 269.737 40.1836 269.659 39.4805C269.698 38.4844 270.001 37.2246 270.567 35.7012C271.134 34.1777 271.769 32.8349 272.472 31.6728C272.94 30.8818 273.429 30.0957 273.937 29.3144C274.454 28.5332 274.884 27.8984 275.226 27.4101C275.577 26.9219 276.207 26.0478 277.115 24.7881C277.271 24.5732 277.418 24.373 277.555 24.1875L274.801 24.0264L274.391 24.1728C274.205 24.1728 274.078 24.1435 274.01 24.0849C273.99 24.0654 273.966 24.0264 273.937 23.9678L270.069 23.7334L264.269 33.5332C264.112 33.8164 263.785 34.417 263.287 35.3349C262.789 36.2432 262.345 37.2148 261.954 38.25C261.573 39.2851 261.383 40.1933 261.383 40.9746C261.383 41.2676 261.417 41.5508 261.485 41.8242C261.485 42.3711 261.349 42.6445 261.075 42.6445C260.353 42.6445 259.283 42.0879 257.867 40.9746C257.555 40.75 257.364 40.2861 257.296 39.583C257.335 38.5771 257.633 37.3125 258.189 35.7891C258.756 34.2656 259.396 32.9228 260.108 31.7607C260.567 30.9795 261.051 30.1982 261.559 29.417C262.076 28.6357 262.506 28.001 262.848 27.5127C263.199 27.0244 263.834 26.1455 264.752 24.876C265.162 24.2998 265.504 23.8262 265.777 23.4551L264.371 23.3672L262.013 24.2754C261.827 24.2754 261.7 24.2461 261.632 24.1875C261.573 24.1289 261.524 24.0068 261.485 23.8213C261.515 23.6064 261.563 23.4014 261.632 23.206C261.075 23.1767 259.991 23.1279 258.38 23.0596C258.048 23.0498 257.716 23.04 257.384 23.0303Z" fill="#D9D9D9"/>
<path d="M231.676 25.5059V25.374C228.238 26.5752 225.528 27.5859 223.546 28.4062C221.563 29.2168 219.742 30.3154 218.082 31.7021C216.422 33.0889 215.592 34.6807 215.592 36.4775C215.592 37.1416 215.953 37.542 216.676 37.6787C218.766 37.6006 223.766 33.543 231.676 25.5059ZM235.279 23.8213C236.354 24.3584 236.891 25.0957 236.891 26.0332C236.891 27.0098 236.393 28.0742 235.396 29.2266C233.053 31.9512 231.852 33.9873 231.793 35.335C231.852 36.1357 232.35 36.5996 233.287 36.7266C234.352 36.7266 235.582 36.3311 236.979 35.54C238.375 34.7393 240.108 33.4941 242.179 31.8047L242.647 34.2656C241.476 35.457 239.991 36.7803 238.194 38.2354C236.397 39.6807 234.61 40.9209 232.833 41.9561C231.056 42.9814 229.61 43.4941 228.497 43.4941C227.042 43.1719 226.261 42.1758 226.153 40.5059C226.28 38.6602 227.062 36.3359 228.497 33.5332L228.38 33.416C228.243 33.5234 227.066 34.4707 224.85 36.2578C222.633 38.0449 220.938 39.3584 219.767 40.1982C218.595 41.0381 217.604 41.5996 216.793 41.8828C216.148 41.8828 215.382 41.5215 214.493 40.7988C213.604 40.0762 212.843 39.1533 212.208 38.0303C211.583 36.9072 211.271 35.8086 211.271 34.7344C211.271 34.0215 211.31 33.543 211.388 33.2988C211.827 31.6191 212.853 29.9736 214.464 28.3623C216.085 26.7412 217.999 25.2959 220.206 24.0264C222.423 22.7568 224.649 21.7266 226.886 20.9355C229.132 20.1348 231.109 19.6562 232.818 19.5H233.419C234.347 19.5 235.216 19.7734 236.026 20.3203C236.847 20.8672 237.257 21.5752 237.257 22.4443C237.257 22.9229 236.598 23.3818 235.279 23.8213Z" fill="#D9D9D9"/>
<path d="M179.996 32.7715C179.83 33.2402 179.615 33.792 179.352 34.4268C179.098 35.0615 178.683 35.6865 178.106 36.3018L177.594 36.8438C182.828 36.6973 187.13 36.1602 190.499 35.2324C193.868 34.2949 196.28 33.0547 197.735 31.5117C199.474 29.666 199.894 27.5859 198.995 25.2715C197.98 21.5801 194.645 19.6562 188.99 19.5C187.457 19.5977 185.514 19.7979 183.16 20.1006L182.56 22.3271C184.181 22.5615 185.348 22.874 186.061 23.2646C186.783 23.6455 187.013 23.9727 186.749 24.2461C186.417 24.6074 185.729 24.7881 184.684 24.7881C183.873 24.7881 182.906 24.666 181.783 24.4219L179.996 32.7715ZM187.994 7.75195C187.975 7.77148 187.955 7.79102 187.936 7.81055C187.34 8.44531 186.681 8.7627 185.958 8.7627L184.581 12.9668C185.177 12.918 186.051 12.8398 187.203 12.7324C188.355 12.6152 189.356 12.5322 190.206 12.4834C193.165 12.5127 195.958 12.8545 198.585 13.5088C201.212 14.1631 203.297 15.2227 204.84 16.6875C206.383 18.1426 206.988 20.1104 206.656 22.5908C206.324 25.0713 204.713 28.0449 201.822 31.5117C201.148 32.3125 200.646 32.8887 200.313 33.2402C196.31 37.498 191.734 40.4912 186.588 42.2197C181.451 43.958 176.134 44.8271 170.636 44.8271C168.38 44.8271 165.733 44.666 162.696 44.3438C156.251 43.5039 153.302 42.0635 153.849 40.0225C154.122 39.0264 154.396 38.0352 154.669 37.0488C154.942 36.0527 155.211 35.208 155.475 34.5146C155.748 33.8115 156.08 33.2305 156.471 32.7715C156.969 32.3711 157.418 32.1709 157.818 32.1709C158.932 32.4541 160.636 33.0107 162.931 33.8408C165.226 34.6611 167.213 35.2764 168.893 35.6865C170.582 36.0967 172.516 36.3018 174.693 36.3018L176.993 23.6455C174.522 22.8936 172.989 21.9951 172.394 20.9502C171.798 19.9053 172.018 18.8018 173.053 17.6396C174.459 16.2725 176.563 15.0762 179.366 14.0508C180.177 11.8145 180.846 9.95898 181.373 8.48438C181.461 8.23047 181.549 7.98633 181.637 7.75195H172.877L175.382 0.457031H187.188C187.628 0.271484 188.028 0.178711 188.39 0.178711C188.829 0.178711 189.166 0.271484 189.4 0.457031H209.63L207.11 7.75195H187.994Z" fill="#D9D9D9"/>
<path d="M115.338 28.9922C116.402 27.166 117.848 25.4033 119.674 23.7041C120.26 23.1182 121.012 22.5615 121.93 22.0342C122.857 21.5068 123.746 21.2432 124.596 21.2432C125.191 21.2432 125.748 21.4043 126.266 21.7266C126.793 22.0488 127.057 22.4883 127.057 23.0449C127.057 23.9531 126.51 25.1152 125.416 26.5312C124.322 27.9473 123.072 29.2949 121.666 30.5742C121.52 30.7109 121.373 30.8428 121.227 30.9697V33.0938H118.59C118.58 33.4062 118.541 33.6748 118.473 33.8994C118.531 34.9736 118.814 35.7158 119.322 36.126C119.83 36.5264 120.685 36.7266 121.886 36.7266C123.048 36.7266 124.132 36.4092 125.138 35.7744C126.153 35.1396 127.95 33.8164 130.528 31.8047L131.012 34.1338C128.902 36.8877 126.72 39.0264 124.464 40.5498C122.218 42.0732 120.26 42.835 118.59 42.835C117.418 42.835 116.456 42.4785 115.704 41.7656C114.952 41.043 114.405 40.1348 114.063 39.041C113.722 37.9375 113.551 36.8242 113.551 35.7012C113.551 34.8027 113.629 33.9336 113.785 33.0938H107.047L103.429 42.2197H97.7158L101.334 33.0938H100.689V28.9922H102.711L105.26 21.4482H110.958L108.424 28.9922H115.338Z" fill="#D9D9D9"/>
<path d="M85.1328 25.5059V25.374C81.6953 26.5752 78.9854 27.5859 77.0029 28.4062C75.0205 29.2168 73.1992 30.3154 71.5391 31.7021C69.8789 33.0889 69.0488 34.6807 69.0488 36.4775C69.0488 37.1416 69.4102 37.542 70.1328 37.6787C72.2227 37.6006 77.2227 33.543 85.1328 25.5059ZM88.7363 23.8213C89.8105 24.3584 90.3477 25.0957 90.3477 26.0332C90.3477 27.0098 89.8496 28.0742 88.8535 29.2266C86.5098 31.9512 85.3086 33.9873 85.25 35.335C85.3086 36.1357 85.8066 36.5996 86.7441 36.7266C87.8086 36.7266 89.0391 36.3311 90.4355 35.54C91.832 34.7393 93.5654 33.4941 95.6357 31.8047L96.1045 34.2656C94.9326 35.457 93.4482 36.7803 91.6514 38.2354C89.8545 39.6807 88.0674 40.9209 86.29 41.9561C84.5127 42.9814 83.0674 43.4941 81.9541 43.4941C80.499 43.1719 79.7178 42.1758 79.6104 40.5059C79.7373 38.6602 80.5186 36.3359 81.9541 33.5332L81.8369 33.416C81.7002 33.5234 80.5234 34.4707 78.3066 36.2578C76.0898 38.0449 74.3955 39.3584 73.2236 40.1982C72.0518 41.0381 71.0605 41.5996 70.25 41.8828C69.6055 41.8828 68.8389 41.5215 67.9502 40.7988C67.0615 40.0762 66.2998 39.1533 65.665 38.0303C65.04 36.9072 64.7275 35.8086 64.7275 34.7344C64.7275 34.0215 64.7666 33.543 64.8447 33.2988C65.2842 31.6191 66.3096 29.9736 67.9209 28.3623C69.542 26.7412 71.4561 25.2959 73.6631 24.0264C75.8799 22.7568 78.1064 21.7266 80.3428 20.9355C82.5889 20.1348 84.5664 19.6562 86.2754 19.5H86.876C87.8037 19.5 88.6729 19.7734 89.4834 20.3203C90.3037 20.8672 90.7139 21.5752 90.7139 22.4443C90.7139 22.9229 90.0547 23.3818 88.7363 23.8213Z" fill="#D9D9D9"/>
<path d="M24.1807 30.7793L23.668 31.6436L6.4707 39.7881C3.58984 41.1943 1.74902 41.8975 0.948242 41.8975C0.430664 41.8975 0.171875 41.5947 0.171875 40.9893C0.171875 40.0518 0.503906 39.1045 1.16797 38.1475C1.83203 37.1807 2.65723 36.3848 3.64355 35.7598C4.62988 35.1348 5.57227 34.7979 6.4707 34.749C6.59766 34.7783 6.77832 34.8125 7.0127 34.8516C7.24707 34.8906 7.4668 34.9395 7.67188 34.998C12.9453 32.2148 17.6377 29.8223 21.749 27.8203C23.5264 26.9512 25.001 26.2236 26.1729 25.6377L28.5898 19.3975C28.3945 19.2803 28.1797 19.1582 27.9453 19.0312L11.5098 9.55371C10.6211 9.05566 9.71777 8.25488 8.7998 7.15137C7.88184 6.04785 7.42285 4.78809 7.42285 3.37207C7.5498 1.4873 8.05273 0.544922 8.93164 0.544922C9.36133 0.544922 10.2207 0.886719 11.5098 1.57031L31.2705 12.498L35.1377 2.55176C35.167 2.54199 35.2012 2.53223 35.2402 2.52246C36.9102 1.96582 38.6826 1.49707 40.5576 1.11621C42.4424 0.735352 44.3125 0.544922 46.168 0.544922C46.8516 0.544922 47.501 0.842773 48.1162 1.43848C48.7412 2.02441 49.2441 2.73242 49.625 3.5625C50.0059 4.38281 50.1963 5.11523 50.1963 5.75977C50.1963 6.47266 50.0742 6.95117 49.8301 7.19531L45.626 13.2598L63.0869 4.9834C65.9678 3.57715 67.8086 2.87402 68.6094 2.87402C69.127 2.87402 69.3857 3.17676 69.3857 3.78223C69.3857 4.71973 69.0537 5.67188 68.3896 6.63867C67.7256 7.5957 66.9004 8.38672 65.9141 9.01172C64.9277 9.63672 63.9854 9.97363 63.0869 10.0225C62.96 9.99316 62.7793 9.95898 62.5449 9.91992C62.3105 9.88086 62.0908 9.83203 61.8857 9.77344C56.6123 12.5566 51.9199 14.9492 47.8086 16.9512C43.6973 18.9531 41.1973 20.2129 40.3086 20.7305C39.4297 21.2383 38.8828 21.8096 38.668 22.4443C38.668 22.6494 38.6094 22.9082 38.4922 23.2207C38.5508 23.5723 38.7949 23.9189 39.2246 24.2607C39.6543 24.5928 40.4502 25.0859 41.6123 25.7402L58.0479 35.2178C58.9365 35.7158 59.8398 36.5166 60.7578 37.6201C61.6758 38.7236 62.1348 39.9834 62.1348 41.3994C62.0078 43.2842 61.5049 44.2266 60.626 44.2266C60.1963 44.2266 59.3369 43.8848 58.0479 43.2012L35.2109 30.5742C35.1523 30.8574 35.0791 31.1455 34.9912 31.4385C34.7275 32.3076 34.4053 33.25 34.0244 34.2656C33.6533 35.2715 33.4629 35.833 33.4531 35.9502C33.2188 36.585 32.6914 37.1611 31.8711 37.6787C31.0605 38.1865 30.4893 38.5918 30.1572 38.8945C27.6768 40.8086 26.0361 41.7656 25.2354 41.7656C24.9912 41.7656 24.8691 41.668 24.8691 41.4727C24.8691 41.4336 24.874 41.3896 24.8838 41.3408C24.5127 41.5947 24.1465 41.8145 23.7852 42C22.9355 42.4004 22.1592 42.6006 21.4561 42.6006C20.6553 42.6006 20.1914 42.2002 20.0645 41.3994V41.3848L24.1807 30.7793Z" fill="#D9D9D9"/>
</svg>
